<svg width="351" height="351" viewBox="0 0 351 351" fill="none" xmlns="http://www.w3.org/2000/svg">
<path fill-rule="evenodd" clip-rule="evenodd" d="M66.5206 183.387C65.2872 184.274 63.8592 184.853 62.3561 185.076C60.853 185.299 59.3184 185.158 57.8806 184.667L49.4006 181.76C48.1205 181.324 47.009 180.498 46.222 179.398C45.4349 178.298 45.0117 176.979 45.0117 175.627C45.0117 174.274 45.4349 172.956 46.222 171.856C47.009 170.756 48.1205 169.93 49.4006 169.493L57.8806 166.587C60.0494 165.845 62.4126 165.909 64.5385 166.765C66.6644 167.622 68.411 169.215 69.4593 171.254C70.5076 173.292 70.7875 175.639 70.2479 177.867C69.7084 180.095 68.3854 182.054 66.5206 183.387Z" fill="#0DFF81"/>
<path fill-rule="evenodd" clip-rule="evenodd" d="M64.6529 254.507C63.9933 253.364 63.781 252.017 64.0568 250.726C64.3326 249.436 65.0771 248.293 66.1462 247.52L85.9062 233.28C87.586 232.067 89.6787 231.572 91.724 231.902C93.7692 232.232 95.5997 233.36 96.8129 235.04C96.9729 235.253 97.1062 235.493 97.2395 235.707C97.7554 236.594 98.0908 237.574 98.2265 238.591C98.3622 239.608 98.2956 240.642 98.0304 241.633C97.7653 242.624 97.3068 243.553 96.6814 244.367C96.056 245.18 95.276 245.862 94.3862 246.373L93.6662 246.747L71.4529 256.747C70.2466 257.285 68.8832 257.357 67.627 256.948C66.3707 256.539 65.3109 255.679 64.6529 254.533" fill="white"/>
<path fill-rule="evenodd" clip-rule="evenodd" d="M97.2405 118.267C96.6836 119.2 95.9424 120.01 95.0621 120.647C94.1818 121.284 93.1809 121.736 92.1205 121.973C91.053 122.208 89.9481 122.215 88.8776 121.995C87.8071 121.774 86.795 121.331 85.9072 120.693L66.1472 106.427C65.0794 105.65 64.3376 104.505 64.0653 103.213C63.7931 101.921 64.0097 100.574 64.6733 99.4326C65.3369 98.2912 66.4004 97.4365 67.6578 97.0339C68.9153 96.6313 70.2773 96.7094 71.4805 97.2532L93.6938 107.227C94.6296 107.642 95.4741 108.239 96.1791 108.981C96.8841 109.724 97.4357 110.598 97.8023 111.555C98.1689 112.511 98.3433 113.53 98.3155 114.553C98.2877 115.577 98.0584 116.585 97.6405 117.52C97.6405 117.76 97.4005 118 97.2672 118.24" fill="white"/>
<path d="M117.24 284.107L115 350.533H52.6C44.2213 350.526 36.1878 347.195 30.2632 341.27C24.3386 335.345 21.0071 327.312 21 318.933L21 304.8C54.1891 304.849 87.0041 297.793 117.24 284.107Z" fill="url(#paint0_linear_578_17)"/>
<path fill-rule="evenodd" clip-rule="evenodd" d="M285.267 254.507C284.609 255.652 283.549 256.513 282.293 256.922C281.037 257.331 279.674 257.259 278.467 256.72L256.254 246.72C254.373 245.886 252.9 244.338 252.16 242.417C251.42 240.497 251.473 238.361 252.307 236.48L252.707 235.707C253.216 234.814 253.896 234.032 254.709 233.404C255.523 232.777 256.452 232.317 257.444 232.052C258.437 231.786 259.472 231.72 260.49 231.858C261.507 231.996 262.488 232.334 263.374 232.853L264.041 233.28L283.801 247.52C284.87 248.294 285.614 249.436 285.89 250.726C286.166 252.017 285.953 253.364 285.294 254.507" fill="white"/>
<path fill-rule="evenodd" clip-rule="evenodd" d="M283.774 106.453L264.014 120.72C262.32 121.926 260.216 122.409 258.166 122.064C256.116 121.719 254.286 120.574 253.08 118.88L252.707 118.293C252.18 117.418 251.831 116.448 251.679 115.438C251.528 114.427 251.578 113.397 251.825 112.406C252.073 111.415 252.514 110.483 253.123 109.663C253.732 108.842 254.497 108.15 255.374 107.627C255.617 107.467 255.876 107.333 256.147 107.227L278.36 97.2532C279.564 96.7094 280.926 96.6313 282.183 97.0339C283.441 97.4365 284.504 98.2912 285.168 99.4326C285.831 100.574 286.048 101.921 285.776 103.213C285.503 104.505 284.762 105.65 283.694 106.427" fill="white"/>
<path fill-rule="evenodd" clip-rule="evenodd" d="M307.587 175.627C307.592 176.978 307.173 178.297 306.388 179.398C305.603 180.498 304.493 181.324 303.214 181.76L294.707 184.667C292.318 185.445 289.719 185.251 287.473 184.126C285.226 183.001 283.514 181.036 282.707 178.657C281.9 176.278 282.063 173.677 283.161 171.417C284.259 169.157 286.204 167.422 288.574 166.587C290.564 165.92 292.717 165.92 294.707 166.587L303.214 169.493C304.491 169.932 305.599 170.76 306.383 171.859C307.167 172.959 307.588 174.276 307.587 175.627Z" fill="#B3D2FF"/>
<path d="M97.9067 112C98.2294 113.039 98.3367 114.134 98.2221 115.216C98.1075 116.298 97.7733 117.345 97.24 118.294C96.6831 119.227 95.9419 120.037 95.0616 120.674C94.1813 121.311 93.1804 121.763 92.12 122C91.0525 122.235 89.9476 122.242 88.8771 122.022C87.8066 121.801 86.7945 121.358 85.9067 120.72L66.1467 106.454C65.0789 105.677 64.3371 104.532 64.0648 103.24C63.7926 101.948 64.0092 100.601 64.6728 99.4596C65.3364 98.3182 66.3999 97.4635 67.6573 97.0609C68.9148 96.6583 70.2768 96.7365 71.48 97.2802L93.6933 107.254C94.6886 107.706 95.5779 108.362 96.3037 109.18C97.0294 109.997 97.5755 110.958 97.9067 112ZM97.9067 242.027C97.5693 243.066 97.0177 244.024 96.2873 244.837C95.557 245.65 94.6642 246.3 93.6667 246.747L71.4533 256.747C70.2429 257.327 68.8581 257.43 67.5753 257.035C66.2925 256.639 65.206 255.774 64.5328 254.613C63.8595 253.452 63.649 252.079 63.9432 250.769C64.2374 249.459 65.0147 248.309 66.12 247.547L85.88 233.307C87.5598 232.094 89.6525 231.599 91.6977 231.929C93.743 232.259 95.5735 233.387 96.7867 235.067C96.9467 235.28 97.08 235.52 97.2133 235.734C97.7466 236.682 98.0808 237.729 98.1954 238.811C98.31 239.894 98.2027 240.988 97.88 242.027M57.88 184.694L49.4 181.787C48.1199 181.35 47.0084 180.524 46.2213 179.425C45.4343 178.325 45.0111 177.006 45.0111 175.654C45.0111 174.301 45.4343 172.982 46.2213 171.883C47.0084 170.783 48.1199 169.957 49.4 169.52L57.88 166.614C59.0714 166.194 60.3342 166.014 61.5954 166.086C62.8565 166.158 64.091 166.479 65.2271 167.031C66.3632 167.583 67.3784 168.355 68.2139 169.303C69.0494 170.25 69.6886 171.354 70.0944 172.55C70.5002 173.747 70.6646 175.011 70.578 176.272C70.4914 177.532 70.1556 178.762 69.5899 179.892C69.0243 181.021 68.2401 182.027 67.2829 182.852C66.3256 183.676 65.2143 184.302 64.0133 184.694C62.0232 185.36 59.8701 185.36 57.88 184.694ZM156.253 0.000237039H107.24C107.233 22.8728 98.1455 44.8069 81.9747 60.9827C65.8039 77.1586 43.8726 86.2527 21 86.2669L21 304.8C54.1891 304.849 87.0041 297.793 117.24 284.107L121.053 171.147C114.307 167.814 109.48 158.96 109.48 148.614C109.48 136.96 115.56 127.28 123.587 125.094C124.681 118.077 127.165 111.35 130.893 105.307C129.139 105.094 127.456 104.483 125.973 103.522C124.489 102.561 123.245 101.275 122.333 99.7602C115.08 89.0936 105.293 78.1602 97.8 60.4802C97.1094 58.9553 96.8392 57.2734 97.0174 55.6089C97.1955 53.9444 97.8156 52.3578 98.8133 51.0136C99.5638 50.0317 100.673 49.3876 101.898 49.2226C103.123 49.0576 104.363 49.3852 105.347 50.1336C105.555 50.2972 105.751 50.4754 105.933 50.6669C117.533 61.6536 131.48 64.9336 139.187 75.4669C139.747 74.1582 140.492 72.9368 141.4 71.8402C143.581 69.0122 146.638 66.9863 150.092 66.0793C153.547 65.1723 157.204 65.4352 160.493 66.8269C161.504 63.414 163.592 60.4193 166.444 58.2896C169.296 56.1599 172.76 55.0092 176.32 55.0092C179.88 55.0092 183.344 56.1599 186.196 58.2896C189.048 60.4193 191.135 63.414 192.147 66.8269C195.645 65.2562 199.607 65.0657 203.24 66.2936C212.173 49.285 223.191 33.4563 236.04 19.1736C211.348 6.52754 183.995 -0.0454979 156.253 0.000237039Z" fill="url(#paint1_linear_578_17)"/>
<path fill-rule="evenodd" clip-rule="evenodd" d="M66.5206 183.387C65.2872 184.274 63.8592 184.853 62.3561 185.076C60.853 185.299 59.3184 185.158 57.8806 184.667L49.4006 181.76C48.1205 181.324 47.009 180.498 46.222 179.398C45.4349 178.298 45.0117 176.979 45.0117 175.627C45.0117 174.274 45.4349 172.956 46.222 171.856C47.009 170.756 48.1205 169.93 49.4006 169.493L57.8806 166.587C60.0494 165.845 62.4126 165.909 64.5385 166.765C66.6644 167.622 68.411 169.215 69.4593 171.254C70.5076 173.292 70.7875 175.639 70.2479 177.867C69.7084 180.095 68.3854 182.054 66.5206 183.387Z" fill="#B3D2FF"/>
<path d="M303.213 181.76L294.706 184.667C292.318 185.445 289.719 185.251 287.472 184.126C285.226 183.001 283.513 181.036 282.706 178.657C281.899 176.278 282.062 173.676 283.161 171.417C284.259 169.157 286.204 167.422 288.573 166.587C290.563 165.92 292.716 165.92 294.706 166.587L303.213 169.493C304.493 169.93 305.605 170.756 306.392 171.856C307.179 172.955 307.602 174.274 307.602 175.627C307.602 176.979 307.179 178.298 306.392 179.398C305.605 180.497 304.493 181.323 303.213 181.76ZM285.266 254.507C284.608 255.652 283.549 256.513 282.292 256.922C281.036 257.331 279.673 257.259 278.466 256.72L256.253 246.72C254.372 245.885 252.899 244.338 252.159 242.417C251.419 240.497 251.472 238.361 252.306 236.48L252.706 235.707C253.215 234.814 253.895 234.031 254.709 233.404C255.522 232.777 256.451 232.317 257.444 232.051C258.436 231.786 259.471 231.72 260.489 231.858C261.507 231.995 262.487 232.334 263.373 232.853L264.04 233.28L283.8 247.52C284.869 248.293 285.613 249.436 285.889 250.726C286.165 252.017 285.953 253.364 285.293 254.507M252.013 112C252.35 110.96 252.902 110.003 253.632 109.19C254.363 108.377 255.256 107.726 256.253 107.28L278.466 97.3065C279.67 96.7628 281.032 96.6846 282.289 97.0872C283.547 97.4898 284.61 98.3445 285.274 99.4859C285.937 100.627 286.154 101.974 285.882 103.266C285.609 104.558 284.868 105.703 283.8 106.48L264.04 120.747C262.346 121.952 260.242 122.436 258.192 122.091C256.142 121.746 254.312 120.6 253.106 118.907L252.733 118.32C252.178 117.375 251.827 116.325 251.703 115.236C251.579 114.148 251.685 113.045 252.013 112ZM251.133 27.8932C246.253 24.7466 241.24 21.8399 236.04 19.1732C223.191 33.4559 212.173 49.2846 203.24 66.2932C206.399 67.3048 209.184 69.2361 211.24 71.8399C212.123 72.9537 212.866 74.1717 213.453 75.4665C220.68 65.5732 233.4 63.3332 244.546 52.7199C245.626 51.5972 247.07 50.897 248.62 50.7454C250.17 50.5939 251.723 51.0009 253 51.8932C253.577 52.2736 254.076 52.7627 254.466 53.3332C255.197 54.2653 255.656 55.3811 255.792 56.5576C255.929 57.734 255.738 58.9253 255.24 59.9999L254.92 60.7465C247.453 78.0799 237.72 89.1199 230.52 99.7599C229.59 101.287 228.324 102.581 226.817 103.542C225.31 104.503 223.603 105.107 221.826 105.307C225.525 111.352 227.965 118.082 229 125.093C236.226 127.067 241.853 135.067 242.92 145.147C243.048 146.298 243.111 147.455 243.106 148.613C243.106 158.347 238.84 166.773 232.68 170.48C232.319 170.737 231.935 170.96 231.533 171.147V172.827L236.866 330.853C265.361 316.067 289.247 293.738 305.917 266.304C322.588 238.869 331.403 207.382 331.4 175.28C331.425 145.958 324.089 117.099 310.066 91.3485C296.042 65.5978 275.778 43.7793 251.133 27.8932Z" fill="url(#paint2_linear_578_17)"/>
<path d="M209.614 165.333C210.571 167.055 211.023 169.011 210.919 170.978C210.816 172.944 210.16 174.842 209.027 176.453C201.427 187.547 190.787 195.973 177.24 195.973H174.36C162.654 194.96 150.36 187.307 142.76 178.107C141.389 176.431 140.561 174.378 140.384 172.22C140.208 170.063 140.693 167.902 141.774 166.027C144.756 161.056 146.332 155.369 146.334 149.573C146.336 144.132 144.999 138.775 142.44 133.973C141.502 132.265 141.059 130.329 141.163 128.383C141.267 126.437 141.912 124.558 143.027 122.96C143.609 123.738 144.28 124.445 145.027 125.067C147.713 127.179 151.019 128.35 154.435 128.398C157.852 128.446 161.189 127.369 163.934 125.333C163.934 131.387 170.04 136.293 177.534 136.293C178.217 136.346 178.903 136.346 179.587 136.293C186.147 135.493 191.16 130.96 191.16 125.467C193.943 127.549 197.341 128.64 200.816 128.568C204.29 128.495 207.64 127.263 210.334 125.067L211.08 124.4C211.576 125.871 211.744 127.433 211.574 128.976C211.403 130.518 210.898 132.006 210.094 133.333C207.146 138.275 205.597 143.926 205.614 149.68C205.619 155.175 206.994 160.583 209.614 165.413M254.387 53.3332C253.996 52.7627 253.498 52.2736 252.92 51.8932C251.653 51.0296 250.123 50.6392 248.597 50.7903C247.071 50.9414 245.647 51.6245 244.574 52.7199C233.427 63.3865 220.574 65.5732 213.48 75.4665C212.893 74.1717 212.15 72.9537 211.267 71.8399C209.212 69.2361 206.426 67.3048 203.267 66.2932C199.634 65.0653 195.672 65.2558 192.174 66.8265C191.162 63.4136 189.075 60.419 186.223 58.2892C183.371 56.1595 179.906 55.0089 176.347 55.0089C172.787 55.0089 169.323 56.1595 166.471 58.2892C163.619 60.419 161.531 63.4136 160.52 66.8265C157.231 65.4348 153.573 65.1719 150.119 66.079C146.665 66.986 143.608 69.0118 141.427 71.8399C140.519 72.9365 139.774 74.1578 139.214 75.4665C131.507 64.9332 117.56 61.6532 105.96 50.6665C105.552 50.2085 105.058 49.8359 104.505 49.5703C103.952 49.3047 103.352 49.1513 102.739 49.1191C102.127 49.0868 101.514 49.1764 100.936 49.3825C100.358 49.5886 99.8273 49.9072 99.3735 50.3199C99.1333 50.5246 98.9184 50.7573 98.7335 51.0132C97.7358 52.3574 97.1158 53.944 96.9376 55.6085C96.7594 57.2731 97.0296 58.9549 97.7202 60.4799C105.214 78.1599 115 89.0399 122.254 99.7599C123.176 101.287 124.437 102.582 125.94 103.544C127.443 104.506 129.147 105.109 130.92 105.307C127.192 111.35 124.708 118.077 123.614 125.093C115.614 127.28 109.507 136.96 109.507 148.613C109.507 158.96 114.334 167.813 121.08 171.147L117.267 284.107L115.027 350.533H156.254C183.996 350.579 211.348 344.006 236.04 331.36L236.974 330.853L231.667 172.827V171.147C232.069 170.96 232.453 170.737 232.814 170.48C238.974 166.773 243.24 158.347 243.24 148.613C243.244 147.455 243.182 146.298 243.054 145.147C241.987 135.067 236.36 127.067 229.134 125.093C228.069 118.069 225.582 111.337 221.827 105.307C223.603 105.107 225.31 104.503 226.817 103.542C228.324 102.581 229.591 101.287 230.52 99.7599C237.72 89.0932 247.454 78.0799 254.92 60.7465L255.24 59.9999C255.738 58.9253 255.929 57.734 255.793 56.5576C255.656 55.3811 255.198 54.2653 254.467 53.3332" fill="url(#paint3_linear_578_17)"/>
<path d="M107.24 0C107.233 22.8726 98.1455 44.8067 81.9747 60.9825C65.8039 77.1584 43.8726 86.2525 21 86.2667L21 31.6C21.0071 23.2213 24.3386 15.1878 30.2632 9.26322C36.1878 3.3386 44.2213 0.00706168 52.6 0L107.24 0Z" fill="url(#paint4_linear_578_17)"/>
<path fill-rule="evenodd" clip-rule="evenodd" d="M192.146 152.56L183.266 160.72C182.501 161.443 181.955 162.367 181.693 163.387C181.106 165.733 179.96 170.347 179.026 174.72C178.88 175.312 178.536 175.836 178.051 176.204C177.566 176.573 176.969 176.765 176.36 176.747C175.751 176.765 175.154 176.573 174.669 176.204C174.183 175.836 173.839 175.312 173.693 174.72L170.866 163.387C170.617 162.362 170.07 161.434 169.293 160.72L160.413 152.56C159.916 152.06 159.638 151.385 159.638 150.68C159.638 149.976 159.916 149.3 160.413 148.8C160.699 148.494 161.054 148.259 161.448 148.116C161.841 147.972 162.264 147.923 162.68 147.973L176.013 149.787H176.733L177.773 149.653L190.066 147.973C190.61 147.919 191.158 148.033 191.635 148.3C192.112 148.567 192.495 148.975 192.733 149.467C192.973 149.981 193.043 150.558 192.933 151.114C192.822 151.67 192.538 152.177 192.12 152.56M205.453 149.573C205.508 143.841 207.111 138.23 210.093 133.333C210.86 132.009 211.333 130.536 211.48 129.013C211.628 127.49 211.446 125.953 210.946 124.507L210.333 125.067C207.624 127.196 204.286 128.367 200.84 128.396C197.395 128.424 194.037 127.31 191.293 125.227C191.293 130.667 186.333 135.253 179.72 136C179.036 136.053 178.35 136.053 177.666 136C170.173 136 164.066 131.093 164.066 125.04C161.322 127.123 157.964 128.238 154.519 128.209C151.074 128.18 147.735 127.009 145.026 124.88C144.28 124.258 143.609 123.551 143.026 122.773C141.912 124.372 141.266 126.25 141.162 128.196C141.059 130.143 141.501 132.079 142.44 133.787C145.032 138.643 146.371 144.069 146.333 149.573C146.352 155.304 144.823 160.933 141.906 165.867C140.826 167.743 140.341 169.903 140.517 172.061C140.694 174.218 141.522 176.271 142.893 177.947C150.546 187.147 162.786 194.8 174.493 195.813H177.373C190.92 195.813 201.56 187.387 209.16 176.293C210.24 174.687 210.855 172.812 210.935 170.877C211.015 168.943 210.557 167.024 209.613 165.333C206.993 160.503 205.618 155.095 205.613 149.6" fill="#B3D2FF"/>
<path fill-rule="evenodd" clip-rule="evenodd" d="M192.147 152.56L183.267 160.72C182.501 161.442 181.956 162.367 181.694 163.387C181.107 165.733 179.96 170.347 179.027 174.72C178.881 175.312 178.537 175.835 178.052 176.204C177.566 176.573 176.969 176.764 176.36 176.747C175.751 176.764 175.154 176.573 174.669 176.204C174.184 175.835 173.84 175.312 173.694 174.72L170.867 163.387C170.618 162.362 170.07 161.434 169.294 160.72L160.414 152.56C159.917 152.06 159.638 151.384 159.638 150.68C159.638 149.975 159.917 149.299 160.414 148.8C160.7 148.494 161.054 148.259 161.448 148.116C161.842 147.972 162.264 147.923 162.68 147.973L176.014 149.787H176.734L177.774 149.653L190.067 147.973C190.611 147.919 191.158 148.033 191.635 148.3C192.112 148.567 192.496 148.974 192.734 149.467C192.974 149.98 193.044 150.557 192.933 151.114C192.823 151.67 192.538 152.176 192.12 152.56" fill="#003580"/>
<defs>
<linearGradient id="paint0_linear_578_17" x1="77.9333" y1="374.533" x2="71.3467" y2="320.667" gradientUnits="userSpaceOnUse">
<stop offset="0.29" stop-color="#3A8BFF"/>
<stop offset="1" stop-color="#81B5FF"/>
</linearGradient>
<linearGradient id="paint1_linear_578_17" x1="163" y1="-36.1064" x2="33.0267" y2="298.72" gradientUnits="userSpaceOnUse">
<stop offset="0.29" stop-color="#0062EE"/>
<stop offset="1" stop-color="#00398A"/>
</linearGradient>
<linearGradient id="paint2_linear_578_17" x1="228.84" y1="348.32" x2="272.866" y2="96.6932" gradientUnits="userSpaceOnUse">
<stop offset="0.29" stop-color="#0062EE"/>
<stop offset="1" stop-color="#00398A"/>
</linearGradient>
<linearGradient id="paint3_linear_578_17" x1="176.36" y1="433.386" x2="176.36" y2="199.707" gradientUnits="userSpaceOnUse">
<stop offset="0.29" stop-color="#B3D2FF"/>
<stop offset="1" stop-color="white"/>
</linearGradient>
<linearGradient id="paint4_linear_578_17" x1="113.693" y1="73.9467" x2="32.36" y2="23.3867" gradientUnits="userSpaceOnUse">
<stop offset="0.29" stop-color="#3A8BFF"/>
<stop offset="1" stop-color="#81B5FF"/>
</linearGradient>
</defs>
</svg>
