<svg width="96" height="49" viewBox="0 0 96 49" fill="none" xmlns="http://www.w3.org/2000/svg">
<g clip-path="url(#clip0_12_134)">
<path d="M0.0686035 48.3311H16.0281L19.2851 39.5237L11.9568 24.5181L0.0686035 48.3311Z" fill="black"/>
<path d="M42.4112 36.4246L24.6603 0.705078L19.2861 12.9378L36.0599 48.3311H48.1428L42.4112 36.4246Z" fill="black"/>
<path fill-rule="evenodd" clip-rule="evenodd" d="M72.0676 48.3312C85.2808 48.3312 95.9924 37.6196 95.9924 24.4064C95.9924 11.1931 85.2808 0.481628 72.0676 0.481628C58.8544 0.481628 48.1428 11.1931 48.1428 24.4064C48.1428 37.6196 58.8544 48.3312 72.0676 48.3312ZM72.0676 38.9402C80.0945 38.9402 86.6014 32.4333 86.6014 24.4064C86.6014 16.3797 80.0945 9.87267 72.0676 9.87267C64.0407 9.87267 57.5339 16.3797 57.5339 24.4064C57.5339 32.4333 64.0407 38.9402 72.0676 38.9402Z" fill="black"/>
</g>
<defs>
<clipPath id="clip0_12_134">
<rect width="95.9391" height="47.8496" fill="white" transform="translate(0.0610352 0.481628)"/>
</clipPath>
</defs>
</svg>
