<svg width="190" height="45" viewBox="0 0 190 45" fill="none" xmlns="http://www.w3.org/2000/svg">
<path d="M40.9821 28.9466L44.5805 28.3027L41.3197 24.6518L44.1444 23.0736L40.5714 20.4101L42.869 14.8859H37.8423L39.1626 9.46033L33.7771 12.223L35.2538 5.07109L29.8122 9.55948L29.235 2.65486L25.1202 8.8666L22.5547 0.580933L19.9909 8.86719L15.8779 2.6525L15.3018 9.55712L9.86029 5.06873L11.3316 12.2206L5.94497 9.46033L7.267 14.8859H2.24213L4.53973 20.4101L0.967319 23.0736L3.79078 24.6518L0.528809 28.3027L4.12778 28.9466L1.6543 33.6463L4.84486 34.8373L3.93479 37.862L6.52159 37.2919L6.78009 41.0207L8.93074 39.9247L9.12609 43.3443L10.8376 42.7741C10.8376 42.7741 13.8689 45.9198 19.9584 44.3204C20.3093 44.232 20.6353 44.0646 20.9115 43.8308C21.1877 43.5971 21.4067 43.3033 21.5519 42.9719C21.8689 42.23 21.7644 41.3193 19.7318 40.9859C16.1517 40.3974 11.1988 41.0874 9.4023 36.5931C9.39014 36.5616 9.38789 36.5272 9.39586 36.4944C9.40383 36.4617 9.42163 36.4321 9.44688 36.4098C9.47213 36.3874 9.50361 36.3733 9.53711 36.3694C9.5706 36.3654 9.6045 36.3718 9.63425 36.3877C11.8445 37.6383 17.0211 38.7673 17.4531 36.4042C17.9134 33.8847 15.7014 33.0525 14.4514 32.3638C13.2014 31.675 7.52609 29.8348 7.78577 26.4501C8.04546 23.0654 11.743 23.9701 12.5805 24.6441C13.3347 25.1393 20.7918 29.7245 20.7918 29.7245C20.7918 29.7245 18.0887 33.311 22.5541 33.311C27.02 33.311 24.3187 29.7245 24.3187 29.7245C24.3187 29.7245 31.7734 25.1363 32.5306 24.6441C33.3675 23.9701 37.0633 23.0677 37.3253 26.4501C37.5874 29.8319 31.9062 31.6686 30.6568 32.3638C29.4079 33.059 27.1941 33.8847 27.6569 36.4042C28.0895 38.7662 33.2625 37.6407 35.4739 36.3877C35.5038 36.371 35.5381 36.3641 35.572 36.3677C35.606 36.3714 35.638 36.3856 35.6636 36.4083C35.6892 36.431 35.707 36.4611 35.7147 36.4945C35.7224 36.5278 35.7195 36.5627 35.7064 36.5943C33.9123 41.0874 28.9565 40.3974 25.3764 40.9859C23.3461 41.3199 23.2393 42.2229 23.5574 42.9719C23.7021 43.3031 23.9208 43.5968 24.1966 43.8304C24.4724 44.0641 24.798 44.2315 25.1485 44.3198C31.2405 45.9204 34.2729 42.7741 34.2729 42.7741L35.9844 43.3443L36.1798 39.9247L38.3292 41.0207L38.5889 37.2931L41.1763 37.8632L40.2662 34.8373L43.4515 33.6534L40.9821 28.9466ZM17.7907 24.1619C17.1411 24.1619 16.5181 23.9039 16.0588 23.4446C15.5994 22.9852 15.3414 22.3622 15.3414 21.7127C15.3414 21.0631 15.5994 20.4401 16.0588 19.9807C16.5181 19.5214 17.1411 19.2634 17.7907 19.2634C18.4403 19.2634 19.0632 19.5214 19.5226 19.9807C19.9819 20.4401 20.2399 21.0631 20.2399 21.7127C20.2399 22.3622 19.9819 22.9852 19.5226 23.4446C19.0632 23.9039 18.4403 24.1619 17.7907 24.1619ZM27.3193 24.1619C26.6697 24.1619 26.0467 23.9039 25.5874 23.4446C25.128 22.9852 24.87 22.3622 24.87 21.7127C24.87 21.0631 25.128 20.4401 25.5874 19.9807C26.0467 19.5214 26.6697 19.2634 27.3193 19.2634C27.9689 19.2634 28.5918 19.5214 29.0512 19.9807C29.5105 20.4401 29.7685 21.0631 29.7685 21.7127C29.7685 22.3622 29.5105 22.9852 29.0512 23.4446C28.5918 23.9039 27.9689 24.1619 27.3193 24.1619ZM57.5399 33.0437L63.0198 15.1191H68.0742L73.5517 33.0431H70.0655L65.1864 17.2349H65.8332L61.0291 33.0437H57.5399ZM60.8261 29.3084V26.1479H70.2868V29.3084H60.8261ZM75.7927 33.0437V19.5992H78.7796V22.8865L78.4568 22.4628C78.6249 22.0078 78.8594 21.5802 79.1526 21.1939C79.4442 20.8113 79.8082 20.4899 80.2238 20.2478C80.554 20.0456 80.9097 19.8884 81.2814 19.7804C81.6673 19.6683 82.064 19.5972 82.4648 19.5685C82.8713 19.5402 83.2796 19.5507 83.6841 19.5998V22.762C83.2621 22.6393 82.8209 22.5973 82.3833 22.6381C81.9198 22.6683 81.4659 22.7844 81.0448 22.9804C80.662 23.1492 80.3191 23.3968 80.0384 23.7069C79.7576 24.0171 79.5453 24.3828 79.4153 24.7805C79.2672 25.2276 79.1952 25.6964 79.2022 26.1674V33.0384L75.7927 33.0437ZM93.7409 33.4167C91.9479 33.4167 90.4022 33.0272 89.1032 32.2469C87.8083 31.4693 86.7673 30.3322 86.1068 28.9738C85.4063 27.5721 85.0557 25.9414 85.0557 24.0811C85.0557 22.2214 85.4063 20.5907 86.1068 19.1884C86.7684 17.8294 87.8109 16.6922 89.1074 15.9152C90.4058 15.1356 91.9515 14.7455 93.7451 14.7455C95.806 14.7455 97.5341 15.256 98.9287 16.2764C100.324 17.2974 101.309 18.6785 101.885 20.4219L98.4737 21.368C98.1443 20.2814 97.5842 19.4369 96.7946 18.8337C96.0049 18.2317 94.988 17.9307 93.7451 17.9325C92.6072 17.9325 91.6587 18.1857 90.9003 18.6915C90.126 19.2153 89.5292 19.962 89.1888 20.8327C88.8069 21.754 88.6163 22.837 88.6163 24.0811C88.6163 25.3252 88.8069 26.4082 89.1888 27.3301C89.5293 28.2005 90.1261 28.947 90.9003 29.4707C91.6599 29.9783 92.6078 30.2309 93.7451 30.2303C94.9892 30.2303 96.0055 29.9269 96.7946 29.3214C97.5836 28.7152 98.1431 27.873 98.4737 26.7942L101.885 27.7408C101.312 29.4825 100.327 30.8647 98.9287 31.8857C97.5305 32.9074 95.8013 33.4179 93.7409 33.4167ZM110.669 33.4167C109.316 33.4167 108.13 33.1139 107.11 32.5078C106.096 31.9095 105.27 31.0397 104.726 29.9965C104.157 28.9301 103.873 27.7043 103.873 26.3185C103.873 24.9168 104.162 23.6821 104.739 22.6145C105.293 21.5762 106.125 20.7123 107.142 20.1191C108.163 19.5219 109.337 19.2232 110.664 19.2221C112.017 19.2221 113.206 19.5254 114.231 20.1309C115.247 20.7278 116.077 21.5964 116.627 22.6393C117.2 23.7063 117.485 24.9327 117.485 26.3185C117.485 27.7043 117.197 28.9342 116.62 30.0089C116.068 31.0502 115.236 31.9166 114.218 32.5108C113.197 33.1157 112.014 33.4179 110.669 33.4167ZM110.669 30.255C111.756 30.255 112.567 29.888 113.103 29.1543C113.639 28.4202 113.907 27.4764 113.905 26.322C113.905 25.1269 113.634 24.1726 113.09 23.4596C112.547 22.7461 111.74 22.389 110.669 22.3884C109.927 22.3884 109.321 22.5537 108.852 22.883C108.37 23.2265 108.003 23.708 107.8 24.264C107.56 24.9217 107.444 25.618 107.458 26.3179C107.458 27.5219 107.73 28.478 108.274 29.1874C108.818 29.8968 109.616 30.2521 110.669 30.255ZM120.204 33.0437V19.5992H123.217V24.0516H123.64V33.0384L120.204 33.0437ZM129.392 33.0437V26.6956C129.392 26.3881 129.375 25.9957 129.341 25.5182C129.305 25.027 129.201 24.5433 129.031 24.0811C128.862 23.6081 128.567 23.1906 128.177 22.8741C127.783 22.5501 127.225 22.3884 126.503 22.3884C126.187 22.3919 125.874 22.4379 125.57 22.5253C125.222 22.6254 124.902 22.8068 124.637 23.0547C124.308 23.3746 124.063 23.7696 123.921 24.2056C123.734 24.7126 123.64 25.3842 123.64 26.2217L121.698 25.2969C121.691 24.2673 121.911 23.2489 122.343 22.3141C122.765 21.3935 123.441 20.6119 124.29 20.0607C125.157 19.4882 126.25 19.2014 127.57 19.2014C128.623 19.2014 129.483 19.3796 130.147 19.7367C130.767 20.0565 131.3 20.5237 131.697 21.0971C132.054 21.6196 132.321 22.1981 132.487 22.8086C132.634 23.3392 132.731 23.8828 132.777 24.4317C132.81 24.9215 132.826 25.2774 132.827 25.5011V33.0449L129.392 33.0437ZM136.037 33.0437V19.5998H139.05V24.0516H139.472V33.039L136.037 33.0437ZM145.223 33.0437V26.6956C145.223 26.3887 145.207 25.9957 145.174 25.5188C145.137 25.0277 145.032 24.5441 144.863 24.0817C144.695 23.6086 144.4 23.191 144.01 22.8747C143.615 22.5501 143.057 22.3884 142.335 22.3884C142.019 22.3922 141.705 22.4385 141.402 22.5259C141.053 22.6263 140.734 22.8075 140.469 23.0553C140.141 23.3753 139.895 23.7703 139.753 24.2062C139.567 24.7126 139.473 25.3848 139.472 26.2223L137.531 25.2975C137.524 24.2666 137.745 23.2469 138.177 22.3111C138.601 21.3905 139.277 20.6089 140.127 20.0572C140.994 19.4847 142.087 19.1979 143.407 19.1979C144.46 19.1979 145.319 19.3761 145.984 19.7332C146.604 20.053 147.136 20.5201 147.533 21.0935C147.89 21.6161 148.157 22.1946 148.323 22.8051C148.47 23.337 148.565 23.8817 148.609 24.4317C148.642 24.9215 148.659 25.278 148.66 25.5011V33.0449L145.223 33.0437ZM157.896 33.4173C156.518 33.4173 155.305 33.1204 154.255 32.5267C153.223 31.9519 152.37 31.1033 151.79 30.0745C151.196 29.0334 150.9 27.8406 150.9 26.4967C150.9 25.0272 151.191 23.75 151.772 22.6629C152.32 21.6106 153.152 20.7332 154.173 20.1304C155.195 19.529 156.369 19.2285 157.697 19.2274C159.108 19.2268 160.308 19.5596 161.298 20.2266C162.301 20.91 163.066 21.8885 163.488 23.0264C163.962 24.2304 164.127 25.6457 163.983 27.2722H160.634V26.0228C160.634 24.6536 160.416 23.6679 159.981 23.0671C159.545 22.4663 158.834 22.1653 157.846 22.1641C156.692 22.1641 155.843 22.5147 155.3 23.2159C154.756 23.9164 154.485 24.9522 154.485 26.3226C154.485 27.5744 154.756 28.5435 155.3 29.2287C155.843 29.9133 156.642 30.2556 157.697 30.255C158.295 30.2723 158.885 30.1214 159.402 29.8195C159.882 29.5199 160.26 29.0815 160.485 28.5624L163.87 29.5338C163.399 30.7201 162.559 31.7237 161.475 32.3968C160.403 33.0713 159.162 33.4254 157.896 33.4173ZM153.444 27.2687V24.7527H162.356V27.2687H153.444ZM172.707 33.4173C171.314 33.4173 170.118 33.1057 169.121 32.4836C168.133 31.8707 167.339 30.9904 166.831 29.9446C166.286 28.8158 166.013 27.5752 166.033 26.322C166.033 24.9611 166.309 23.7453 166.862 22.6747C167.389 21.6309 168.197 20.7555 169.195 20.1475C170.199 19.5337 171.386 19.2268 172.755 19.2262C174.34 19.2262 175.67 19.6269 176.745 20.4284C177.82 21.2293 178.507 22.3229 178.805 23.7081L175.42 24.6046C175.256 23.9636 174.891 23.3918 174.379 22.9733C173.905 22.5904 173.314 22.3837 172.705 22.3884C171.992 22.3884 171.407 22.5608 170.95 22.9054C170.484 23.2636 170.134 23.7515 169.944 24.3077C169.719 24.9538 169.61 25.6344 169.62 26.3185C169.62 27.4882 169.88 28.4367 170.398 29.1632C170.917 29.8891 171.687 30.2521 172.707 30.2509C173.471 30.2509 174.053 30.0774 174.451 29.7292C174.849 29.381 175.147 28.8834 175.346 28.2354L178.809 28.9578C178.43 30.3873 177.707 31.488 176.641 32.2593C175.575 33.0313 174.264 33.4173 172.707 33.4173ZM179.804 22.2137V19.5992H189.364V22.2137H179.804ZM189.364 33.0437C188.464 33.2156 187.548 33.2928 186.632 33.2739C185.812 33.2677 185.001 33.1073 184.241 32.8011C183.56 32.5241 182.995 32.0205 182.642 31.3752C182.321 30.8015 182.141 30.1588 182.119 29.5014C182.102 28.8675 182.093 28.1481 182.095 27.3425V15.8656H185.479V27.143C185.479 27.6671 185.485 28.1375 185.498 28.5553C185.493 28.9065 185.581 29.2528 185.754 29.5586C186.052 30.0308 186.529 30.2881 187.184 30.33C187.913 30.3684 188.642 30.3347 189.364 30.2297V33.0437Z" fill="#9A9A9A"/>
</svg>
