<svg width="100" height="100" viewBox="0 0 100 100" fill="none" xmlns="http://www.w3.org/2000/svg">
<rect width="100" height="100" rx="15" fill="#000AFF"/>
<path d="M55.1522 39.4036C53.4111 40.6449 51.2804 41.375 48.9792 41.375C43.0996 41.375 38.3333 36.6087 38.3333 30.7292C38.3333 24.8496 43.0996 20.0833 48.9792 20.0833C52.7903 20.0833 56.1338 22.086 58.0145 25.0964M32.25 75.0984H40.1896C41.2248 75.0984 42.2537 75.2216 43.2572 75.468L51.6464 77.5066C53.4667 77.95 55.363 77.9932 57.2022 77.6359L66.4778 75.8314C68.9281 75.354 71.1821 74.1807 72.9485 72.4624L79.5111 66.0786C81.3852 64.2586 81.3852 61.3053 79.5111 59.4823C77.8238 57.8409 75.1519 57.6561 73.243 59.048L65.5946 64.6281C64.4992 65.4288 63.1665 65.8599 61.7957 65.8599H54.4101L59.1112 65.8597C61.7609 65.8597 63.9072 63.7718 63.9072 61.1942V60.2612C63.9072 58.1209 62.4099 56.2547 60.2762 55.7374L53.0203 53.9728C51.8395 53.6864 50.6302 53.5417 49.4146 53.5417C46.4799 53.5417 41.1679 55.9714 41.1679 55.9714L32.25 59.7007M74.8333 33.7708C74.8333 39.6504 70.067 44.4167 64.1875 44.4167C58.308 44.4167 53.5417 39.6504 53.5417 33.7708C53.5417 27.8913 58.308 23.125 64.1875 23.125C70.067 23.125 74.8333 27.8913 74.8333 33.7708ZM20.0833 58.4083L20.0833 76.05C20.0833 77.7535 20.0833 78.6052 20.4149 79.2559C20.7065 79.8282 21.1718 80.2935 21.7441 80.5851C22.3948 80.9167 23.2465 80.9167 24.95 80.9167H27.3833C29.0868 80.9167 29.9386 80.9167 30.5892 80.5852C31.1616 80.2935 31.6269 79.8282 31.9185 79.2559C32.25 78.6052 32.25 77.7535 32.25 76.05V58.4083C32.25 56.7049 32.25 55.8531 31.9185 55.2025C31.6269 54.6301 31.1616 54.1648 30.5892 53.8732C29.9386 53.5417 29.0868 53.5417 27.3833 53.5417L24.95 53.5417C23.2465 53.5417 22.3948 53.5417 21.7441 53.8732C21.1718 54.1648 20.7065 54.6301 20.4149 55.2025C20.0833 55.8531 20.0833 56.7048 20.0833 58.4083Z" stroke="white" stroke-width="2" stroke-linecap="round" stroke-linejoin="round"/>
</svg>
