<svg width="30" height="30" viewBox="0 0 30 30" fill="none" xmlns="http://www.w3.org/2000/svg">
<path d="M16.9119 10.4398C16.1963 10.9499 15.3207 11.25 14.375 11.25C11.9588 11.25 10 9.29125 10 6.875C10 4.45875 11.9588 2.5 14.375 2.5C15.9412 2.5 17.3152 3.32302 18.0881 4.56018M7.5 25.1089H10.7629C11.1883 25.1089 11.6111 25.1596 12.0235 25.2608L15.4711 26.0986C16.2192 26.2808 16.9985 26.2986 17.7543 26.1518L21.5662 25.4101C22.5732 25.214 23.4995 24.7318 24.2254 24.0256L26.9224 21.4021C27.6925 20.6542 27.6925 19.4405 26.9224 18.6913C26.2289 18.0168 25.1309 17.9409 24.3464 18.5129L21.2032 20.8061C20.7531 21.1351 20.2054 21.3123 19.6421 21.3123H16.6069L18.5388 21.3122C19.6278 21.3122 20.5098 20.4542 20.5098 19.3949V19.0114C20.5098 18.1319 19.8945 17.365 19.0176 17.1523L16.0357 16.4272C15.5505 16.3095 15.0535 16.25 14.5539 16.25C13.3479 16.25 11.1649 17.2485 11.1649 17.2485L7.5 18.7811M25 8.125C25 10.5412 23.0412 12.5 20.625 12.5C18.2088 12.5 16.25 10.5412 16.25 8.125C16.25 5.70875 18.2088 3.75 20.625 3.75C23.0412 3.75 25 5.70875 25 8.125ZM2.5 18.25L2.5 25.5C2.5 26.2001 2.5 26.5501 2.63624 26.8175C2.75608 27.0527 2.94731 27.2439 3.18251 27.3638C3.4499 27.5 3.79993 27.5 4.5 27.5H5.5C6.20007 27.5 6.5501 27.5 6.81749 27.3638C7.05269 27.2439 7.24392 27.0527 7.36376 26.8175C7.5 26.5501 7.5 26.2001 7.5 25.5V18.25C7.5 17.5499 7.5 17.1999 7.36376 16.9325C7.24392 16.6973 7.05269 16.5061 6.81749 16.3862C6.5501 16.25 6.20007 16.25 5.5 16.25L4.5 16.25C3.79993 16.25 3.4499 16.25 3.18251 16.3862C2.94731 16.5061 2.75608 16.6973 2.63624 16.9325C2.5 17.1999 2.5 17.5499 2.5 18.25Z" stroke="white" stroke-width="2" stroke-linecap="round" stroke-linejoin="round"/>
</svg>
