<svg width="73" height="73" viewBox="0 0 73 73" fill="none" xmlns="http://www.w3.org/2000/svg">
<path d="M41.1522 25.4036C39.4111 26.6449 37.2804 27.375 34.9792 27.375C29.0996 27.375 24.3333 22.6087 24.3333 16.7292C24.3333 10.8496 29.0996 6.08334 34.9792 6.08334C38.7903 6.08334 42.1337 8.08603 44.0145 11.0964M18.25 61.0984H26.1896C27.2248 61.0984 28.2537 61.2216 29.2572 61.468L37.6464 63.5066C39.4667 63.95 41.3629 63.9932 43.2022 63.6359L52.4778 61.8314C54.9281 61.354 57.1821 60.1807 58.9485 58.4624L65.5111 52.0786C67.3852 50.2586 67.3852 47.3053 65.5111 45.4823C63.8237 43.8409 61.1519 43.6561 59.2429 45.048L51.5946 50.6281C50.4992 51.4288 49.1664 51.8599 47.7957 51.8599H40.4101L45.1112 51.8597C47.7609 51.8597 49.9072 49.7718 49.9072 47.1942V46.2612C49.9072 44.1209 48.4098 42.2547 46.2761 41.7374L39.0203 39.9728C37.8395 39.6864 36.6302 39.5417 35.4145 39.5417C32.4799 39.5417 27.1678 41.9714 27.1678 41.9714L18.25 45.7007M60.8333 19.7708C60.8333 25.6504 56.067 30.4167 50.1875 30.4167C44.308 30.4167 39.5417 25.6504 39.5417 19.7708C39.5417 13.8913 44.308 9.12501 50.1875 9.12501C56.067 9.12501 60.8333 13.8913 60.8333 19.7708ZM6.08333 44.4083L6.08333 62.05C6.08333 63.7535 6.08333 64.6052 6.41485 65.2559C6.70646 65.8282 7.17178 66.2935 7.74411 66.5851C8.39475 66.9167 9.2465 66.9167 10.95 66.9167H13.3833C15.0868 66.9167 15.9386 66.9167 16.5892 66.5852C17.1615 66.2935 17.6269 65.8282 17.9185 65.2559C18.25 64.6052 18.25 63.7535 18.25 62.05V44.4083C18.25 42.7049 18.25 41.8531 17.9185 41.2025C17.6269 40.6301 17.1615 40.1648 16.5892 39.8732C15.9386 39.5417 15.0868 39.5417 13.3833 39.5417L10.95 39.5417C9.2465 39.5417 8.39476 39.5417 7.74411 39.8732C7.17178 40.1648 6.70647 40.6301 6.41485 41.2025C6.08333 41.8531 6.08333 42.7048 6.08333 44.4083Z" stroke="black" stroke-width="4" stroke-linecap="round" stroke-linejoin="round"/>
</svg>
