<svg width="144" height="39" viewBox="0 0 144 39" fill="none" xmlns="http://www.w3.org/2000/svg">
<g clip-path="url(#clip0_43_1492)">
<path d="M51.2298 18.0677C52.0674 18.4021 52.9657 18.5692 53.925 18.5692C54.9146 18.5692 55.8647 18.3511 56.7754 17.9147C57.6861 17.4784 58.4268 16.9014 58.9971 16.1837L57.6775 15.0093C57.2464 15.5235 56.7137 15.9553 56.0792 16.3049C55.4448 16.6545 54.727 16.8294 53.9258 16.8295C53.0026 16.8295 52.1695 16.6278 51.426 16.2242C50.6825 15.8206 50.0952 15.2468 49.6639 14.5028C49.2329 13.7589 49.0173 12.9117 49.0173 11.9611C49.0173 10.5802 49.4741 9.42354 50.3878 8.49105C51.3014 7.55856 52.4263 7.09239 53.7625 7.09253C54.4428 7.09259 55.1156 7.23148 55.7385 7.50041C56.376 7.77261 56.8922 8.1205 57.2866 8.54407L58.5342 7.33364C57.9635 6.71837 57.2578 6.23425 56.4169 5.88123C55.5778 5.52906 54.6747 5.34909 53.7625 5.35237C52.524 5.35237 51.3992 5.64347 50.3878 6.22564C49.3907 6.79452 48.5706 7.62071 48.0157 8.615C47.4448 9.62516 47.1593 10.7398 47.1597 11.959C47.1597 12.8975 47.3312 13.7761 47.6741 14.5948C48.0171 15.4135 48.4858 16.1129 49.0803 16.6928C49.6755 17.2745 50.392 17.7328 51.2298 18.0677Z" fill="#9A9A9A"/>
<path d="M67.5146 10.8634C66.6556 10.0058 65.5764 9.57702 64.2771 9.57687C62.9778 9.57673 61.8974 10.0056 61.0354 10.8634C60.1739 11.7213 59.7432 12.7928 59.7432 14.0778C59.7432 15.3629 60.1742 16.4328 61.0363 17.2877C61.8976 18.142 62.9778 18.5692 64.2771 18.5692C65.5764 18.5692 66.6556 18.1419 67.5146 17.2872C68.3735 16.4324 68.8029 15.3625 68.8033 14.0774C68.8035 12.7924 68.3741 11.721 67.5146 10.8634ZM66.258 16.0996C65.7387 16.6464 65.0786 16.9198 64.2771 16.9198C63.4758 16.9198 62.8155 16.6464 62.2959 16.0996C61.7766 15.5526 61.5171 14.8787 61.5171 14.0778C61.5171 13.277 61.7766 12.6016 62.2959 12.0516C62.8149 11.5018 63.4751 11.2269 64.2764 11.2267C65.0775 11.2266 65.738 11.5016 66.258 12.0516C66.7771 12.6016 67.0368 13.2771 67.0368 14.0781C67.0368 14.8791 66.7771 15.5529 66.258 16.0996Z" fill="#9A9A9A"/>
<path d="M84.0388 11.0296C83.6699 10.5763 83.2012 10.2115 82.6681 9.96246C82.1242 9.70534 81.5277 9.5735 80.9242 9.57694C80.1958 9.57694 79.572 9.70248 79.0529 9.95352C78.534 10.2046 78.0436 10.5573 77.5819 11.0117C77.2083 10.5714 76.7443 10.2139 76.2205 9.96246C75.6892 9.70559 75.111 9.57708 74.4859 9.57694C73.9576 9.57444 73.4355 9.68612 72.9558 9.90411C72.4762 10.1226 72.1272 10.3513 71.9087 10.5902V9.75651H70.1965V18.3906H71.9724V12.4551C72.2636 12.1143 72.6218 11.8245 73.0469 11.5857C73.4681 11.3474 73.9459 11.2235 74.4315 11.2268C74.7584 11.2253 75.0816 11.2942 75.3786 11.4287C75.666 11.5557 75.9211 11.744 76.1253 11.9799C76.4653 12.3744 76.6352 12.9513 76.6352 13.7105V18.3906H78.4021V13.9795C78.4021 13.4115 78.3535 12.9034 78.2563 12.4551C79.0515 11.6364 79.9408 11.2269 80.9242 11.2268C81.5862 11.2268 82.1324 11.4778 82.5635 11.9799C82.8974 12.3633 83.0644 12.9402 83.0644 13.7105V18.3906H84.8403V13.9795C84.8403 13.2681 84.7749 12.6838 84.6443 12.2266C84.5136 11.7694 84.3119 11.3704 84.0388 11.0296Z" fill="#9A9A9A"/>
<path d="M100.565 11.0247C100.196 10.5716 99.7275 10.2068 99.1946 9.95778C98.6505 9.70051 98.054 9.5686 97.4505 9.57206C96.722 9.57206 96.0983 9.69758 95.5793 9.94863C95.0602 10.1997 94.5697 10.5525 94.1083 11.007C93.7344 10.5667 93.2706 10.2092 92.7469 9.95778C92.2156 9.70078 91.6373 9.5722 91.012 9.57206C90.4843 9.56997 89.9624 9.68201 89.4834 9.90027C89.0038 10.1188 88.6546 10.3474 88.4361 10.5861V9.75118H86.7241V18.3857H88.5V12.4502C88.8035 12.1 89.1676 11.8057 89.5754 11.5808C89.9964 11.3425 90.4742 11.2187 90.9598 11.2219C91.2867 11.2205 91.6099 11.2893 91.9067 11.4236C92.1942 11.5506 92.4492 11.739 92.6537 11.975C92.9936 12.3695 93.1635 12.9464 93.1635 13.7056V18.3857H94.9303V13.9746C94.9303 13.4066 94.8817 12.8985 94.7845 12.4502C95.5796 11.6315 96.4691 11.222 97.4525 11.2219C98.1143 11.2219 98.6607 11.4729 99.0916 11.975C99.4257 12.3584 99.5927 12.9353 99.5927 13.7056V18.3857H101.369V13.9746C101.369 13.2632 101.303 12.6789 101.173 12.2217C101.042 11.7645 100.839 11.3655 100.565 11.0247Z" fill="#9A9A9A"/>
<path d="M109.596 15.687C109.293 16.0374 108.929 16.332 108.521 16.5569C108.1 16.7949 107.623 16.9186 107.137 16.9153C106.809 16.9166 106.484 16.8478 106.185 16.7136C105.896 16.5875 105.64 16.3991 105.435 16.1624C105.101 15.78 104.935 15.2062 104.935 14.4408V9.75131H103.168V14.1624C103.168 14.8738 103.233 15.4596 103.364 15.9198C103.495 16.38 103.696 16.7805 103.97 17.1213C104.338 17.574 104.807 17.9374 105.34 18.1837C105.885 18.438 106.481 18.5683 107.084 18.5648C107.624 18.5648 108.124 18.4631 108.582 18.2598C109.041 18.0564 109.397 17.8354 109.651 17.5967V18.3848H111.372V9.75131H109.596V15.687Z" fill="#9A9A9A"/>
<path d="M119.757 9.98013C119.204 9.70881 118.595 9.56903 117.977 9.57204C117.406 9.57204 116.898 9.67222 116.452 9.87257C116.005 10.0729 115.637 10.3105 115.345 10.5853V9.75116H113.633V18.3857H115.409V12.4502C116.089 11.6315 116.926 11.222 117.922 11.2219C118.276 11.2208 118.624 11.299 118.942 11.4506C119.251 11.5927 119.522 11.8029 119.735 12.0649C120.081 12.4832 120.254 13.1527 120.254 14.0732V18.3857H122.029V14.1627C122.029 12.8421 121.741 11.8198 121.164 11.0956C120.785 10.6261 120.304 10.2452 119.757 9.98013Z" fill="#9A9A9A"/>
<path d="M125.552 9.75171H123.776V18.3858H125.552V9.75171Z" fill="#9A9A9A"/>
<path d="M124.65 5.52899C124.322 5.52899 124.048 5.64103 123.826 5.86511C123.604 6.08917 123.494 6.36265 123.494 6.68556C123.494 7.00816 123.605 7.2786 123.826 7.49685C124.048 7.7151 124.322 7.82422 124.65 7.82422C124.978 7.82422 125.256 7.7151 125.484 7.49685C125.711 7.2786 125.825 7.00816 125.825 6.68556C125.825 6.3628 125.711 6.08931 125.484 5.86511C125.256 5.64089 124.978 5.52885 124.65 5.52899Z" fill="#9A9A9A"/>
<path d="M130.859 7.3671H129.083V9.75156H126.843V11.3205H129.083V15.266C129.083 16.2822 129.32 17.0473 129.793 17.5612C130.388 18.2307 131.214 18.5655 132.27 18.5655C132.817 18.5655 133.278 18.5057 133.655 18.3861L133.299 16.8082C133.038 16.8792 132.717 16.9147 132.334 16.9147C132.095 16.9155 131.858 16.8745 131.633 16.7938C131.408 16.7131 131.235 16.601 131.114 16.4574C130.944 16.2663 130.859 15.8988 130.859 15.3548V11.3209H133.655V9.75156H130.859V7.3671Z" fill="#9A9A9A"/>
<path d="M141.748 9.75171L139.226 15.445L136.485 9.75171H134.582L138.333 17.4893L135.966 22.797H137.851L143.615 9.75171H141.748Z" fill="#9A9A9A"/>
<path d="M50.046 20.835H48.1792V33.6919H55.8285V31.9437H50.046V20.835Z" fill="#9A9A9A"/>
<path d="M63.6414 25.8558C62.877 25.2044 61.9604 24.8784 60.8914 24.8784C60.0898 24.8784 59.3764 25.0608 58.7513 25.4254C58.0713 25.8198 57.5251 26.3665 57.112 27.0654C56.6991 27.7643 56.4927 28.5353 56.4927 29.3786C56.4927 30.2214 56.6962 30.9881 57.103 31.6789C57.5098 32.3695 58.0531 32.912 58.7331 33.3061C59.3821 33.6827 60.1166 33.8711 60.9368 33.8711C62.0115 33.8711 62.9128 33.5484 63.641 32.9026V33.6908H65.3529V25.0577H63.641L63.6414 25.8558ZM63.5764 30.9932C63.2901 31.3724 62.9195 31.6822 62.4929 31.8988C62.0678 32.1139 61.6279 32.2216 61.1733 32.2216C60.3414 32.2216 59.6492 31.9437 59.0965 31.3877C58.5438 30.8317 58.2677 30.1624 58.2677 29.3795C58.2677 28.6023 58.5303 27.9329 59.0554 27.371C59.5805 26.8091 60.2559 26.5282 61.0815 26.5282C61.5745 26.5242 62.0608 26.6396 62.4976 26.8646C62.9202 27.0791 63.2888 27.384 63.5768 27.7565L63.5764 30.9932Z" fill="#9A9A9A"/>
<path d="M74.2157 25.4254C73.5906 25.0609 72.8772 24.8786 72.0757 24.8784C71.0374 24.8784 70.142 25.1893 69.3893 25.8109V20.6566H67.6138V33.6916H69.3267V32.9037C70.0552 33.5491 70.9566 33.872 72.0307 33.8722C72.8502 33.8722 73.5849 33.6837 74.2346 33.307C74.9142 32.9125 75.4576 32.3702 75.8643 31.6798C76.2713 30.9894 76.4747 30.2227 76.4747 29.3794C76.4747 28.5366 76.2682 27.7655 75.8553 27.0663C75.4425 26.3671 74.8959 25.8201 74.2157 25.4254ZM73.8696 31.3877C73.3171 31.9437 72.6248 32.2215 71.7928 32.2215C71.3329 32.2205 70.8803 32.1096 70.4732 31.899C70.0464 31.6825 69.6758 31.3726 69.3893 30.9933V27.7558C69.6773 27.3831 70.0461 27.0784 70.4687 26.8638C70.9055 26.6388 71.3918 26.5233 71.8846 26.5274C72.7102 26.5274 73.3855 26.8084 73.9106 27.3703C74.436 27.9322 74.6986 28.6016 74.6986 29.3785C74.699 30.1624 74.4225 30.8321 73.8696 31.3877Z" fill="#9A9A9A"/>
<path d="M83.504 29.5991C83.3067 29.4168 83.0533 29.248 82.7436 29.0926C82.4725 28.9533 82.191 28.8349 81.9014 28.7384C81.6494 28.6578 81.3595 28.5757 81.0317 28.4917C80.8129 28.438 80.6444 28.3932 80.5262 28.3574C80.4079 28.3214 80.2699 28.2737 80.1118 28.214C79.9533 28.1542 79.8349 28.0928 79.7569 28.03C79.6754 27.9647 79.6059 27.8858 79.5517 27.7971C79.494 27.7041 79.4641 27.5968 79.4654 27.4877C79.4654 27.1589 79.6185 26.8963 79.9252 26.6996C80.2319 26.5029 80.6068 26.4044 81.0501 26.4041C81.6991 26.4041 82.3274 26.6312 82.9351 27.0855L83.8458 25.8304C83.0443 25.1967 82.076 24.88 80.9407 24.8798C80.5431 24.8785 80.1473 24.9345 79.7659 25.0457C79.3977 25.1526 79.0489 25.3161 78.7323 25.5301C78.4198 25.7423 78.1695 26.0247 77.9812 26.3771C77.793 26.7296 77.6988 27.1297 77.6986 27.5774C77.6986 28.6171 78.3694 29.3583 79.7107 29.8009C79.9052 29.8667 80.1601 29.9386 80.4756 30.0161C80.7909 30.0937 81.046 30.1608 81.2407 30.2179C81.4461 30.2787 81.6469 30.3536 81.8417 30.442C82.0477 30.5348 82.2011 30.6484 82.3013 30.7827C82.4018 30.9169 82.4518 31.08 82.4518 31.2715C82.4518 31.5942 82.2985 31.8543 81.9918 32.0515C81.6853 32.2488 81.3287 32.3473 80.9221 32.3471C80.0174 32.3471 79.152 32.0303 78.3261 31.3968L77.4155 32.679C78.4107 33.4741 79.5915 33.8717 80.9579 33.8717C81.8505 33.8717 82.6168 33.6296 83.2574 33.1455C83.8978 32.6611 84.218 32.0246 84.2178 31.2355C84.2216 30.9115 84.1501 30.591 84.0086 30.2983C83.8692 30.0145 83.7009 29.7814 83.504 29.5991Z" fill="#9A9A9A"/>
<path d="M1.58297 19.5494C1.58297 11.7442 8.03247 5.39467 15.9595 5.39467H29.578C26.4699 2.98998 22.554 1.55142 18.294 1.55142H18.2875C8.19709 1.55504 0.0175937 9.60832 0.013916 19.5434V19.5497C0.013916 29.1507 7.65043 36.994 17.2683 37.5183C17.6082 37.5367 17.9498 37.548 18.2944 37.548C22.554 37.548 26.4699 36.1096 29.5779 33.7046H15.9595C8.03247 33.7046 1.58297 27.3547 1.58297 19.5494Z" fill="#9A9A9A"/>
<path d="M7.79586 19.5492C7.79586 15.1171 11.4579 11.5115 15.9591 11.5115H34.6501C33.945 10.1244 33.0607 8.83274 32.0197 7.66849H18.2939C11.6403 7.66849 6.22681 12.9982 6.22681 19.5492C6.22681 26.1002 11.6403 31.431 18.2939 31.431H32.0192C33.0602 30.2665 33.9443 28.9747 34.6494 27.5874H15.9583C11.4577 27.5874 7.79586 23.9818 7.79586 19.5492Z" fill="#9A9A9A"/>
<path d="M14.0105 19.549C14.011 19.0399 14.2167 18.5517 14.5824 18.1916C14.9481 17.8316 15.444 17.6291 15.9612 17.6285H36.4695C36.3279 16.3204 36.0401 15.0315 35.6112 13.7855H18.294C15.0662 13.7855 12.4399 16.3713 12.4399 19.549C12.4399 22.727 15.0662 25.3133 18.294 25.3133H35.6112C36.0402 24.0673 36.3282 22.7783 36.4699 21.4698H15.9616C15.4443 21.4694 14.9483 21.267 14.5825 20.9068C14.2167 20.5467 14.011 20.0584 14.0105 19.549Z" fill="#9A9A9A"/>
</g>
<defs>
<clipPath id="clip0_43_1492">
<rect width="143.986" height="37.7963" fill="white" transform="translate(0.013916 0.611969)"/>
</clipPath>
</defs>
</svg>
