<svg width="52" height="52" viewBox="0 0 52 52" fill="none" xmlns="http://www.w3.org/2000/svg">
<g clip-path="url(#clip0_36_1369)">
<path d="M43.9721 9.08285C40.6083 7.50806 37.0571 6.39085 33.4093 5.75977C32.9102 6.67223 32.4585 7.61103 32.0563 8.57224C28.1707 7.97351 24.2193 7.97351 20.3337 8.57224C19.9313 7.61113 19.4796 6.67234 18.9807 5.75977C15.3306 6.39618 11.7771 7.51604 8.40984 9.09108C1.72505 19.2045 -0.0870898 29.0666 0.818981 38.7888C4.73376 41.7465 9.11551 43.9958 13.7738 45.4391C14.8227 43.9965 15.7508 42.4662 16.5484 40.8642C15.0336 40.2857 13.5715 39.5719 12.1791 38.7312C12.5455 38.4594 12.9039 38.1794 13.2503 37.9076C17.3018 39.8559 21.7238 40.8661 26.201 40.8661C30.6782 40.8661 35.1003 39.8559 39.1518 37.9076C39.5022 38.2 39.8606 38.48 40.223 38.7312C38.8279 39.5733 37.3632 40.2884 35.8457 40.8683C36.6422 42.4695 37.5704 43.9986 38.6202 45.4391C43.2825 44.0016 47.6676 41.7533 51.5831 38.7929V38.7929C52.6462 27.5183 49.7669 17.7467 43.9721 9.08285ZM17.6961 32.8097C15.1711 32.8097 13.0852 30.4667 13.0852 27.5842C13.0852 24.7017 15.0987 22.3381 17.688 22.3381C20.2774 22.3381 22.3472 24.7017 22.3029 27.5842C22.2586 30.4667 20.2693 32.8097 17.6961 32.8097ZM34.706 32.8097C32.1771 32.8097 30.0992 30.4667 30.0992 27.5842C30.0992 24.7017 32.1126 22.3381 34.706 22.3381C37.2994 22.3381 39.3532 24.7017 39.3089 27.5842C39.2646 30.4667 37.2793 32.8097 34.706 32.8097Z" fill="#717171"/>
</g>
<defs>
<clipPath id="clip0_36_1369">
<rect width="51.1991" height="51.1991" fill="white" transform="translate(0.601562)"/>
</clipPath>
</defs>
</svg>
