<svg width="73" height="73" viewBox="0 0 73 73" fill="none" xmlns="http://www.w3.org/2000/svg">
<path d="M36.5 51.7083C36.5 60.1077 43.309 66.9167 51.7083 66.9167C60.1077 66.9167 66.9167 60.1077 66.9167 51.7083C66.9167 43.309 60.1077 36.5 51.7083 36.5C43.309 36.5 36.5 43.309 36.5 51.7083ZM36.5 51.7083C36.5 48.2839 37.6318 45.1239 39.5417 42.5818V15.2083M36.5 51.7083C36.5 54.2188 37.1083 56.5872 38.1855 58.6741C35.623 60.8387 29.7044 62.3542 22.8125 62.3542C13.5732 62.3542 6.08333 59.6306 6.08333 56.2708V15.2083M39.5417 15.2083C39.5417 18.5681 32.0518 21.2917 22.8125 21.2917C13.5732 21.2917 6.08333 18.5681 6.08333 15.2083M39.5417 15.2083C39.5417 11.8486 32.0518 9.125 22.8125 9.125C13.5732 9.125 6.08333 11.8486 6.08333 15.2083M6.08333 42.5833C6.08333 45.9431 13.5732 48.6667 22.8125 48.6667C29.4707 48.6667 35.2204 47.2522 37.9133 45.2046M39.5417 28.8958C39.5417 32.2556 32.0518 34.9792 22.8125 34.9792C13.5732 34.9792 6.08333 32.2556 6.08333 28.8958" stroke="black" stroke-width="4" stroke-linecap="round" stroke-linejoin="round"/>
</svg>
