<svg width="30" height="30" viewBox="0 0 30 30" fill="none" xmlns="http://www.w3.org/2000/svg">
<path d="M15 21.25C15 24.7018 17.7982 27.5 21.25 27.5C24.7018 27.5 27.5 24.7018 27.5 21.25C27.5 17.7982 24.7018 15 21.25 15C17.7982 15 15 17.7982 15 21.25ZM15 21.25C15 19.8427 15.4651 18.5441 16.25 17.4994V6.25M15 21.25C15 22.2817 15.25 23.255 15.6927 24.1127C14.6396 25.0022 12.2073 25.625 9.375 25.625C5.57804 25.625 2.5 24.5057 2.5 23.125V6.25M16.25 6.25C16.25 7.63071 13.172 8.75 9.375 8.75C5.57804 8.75 2.5 7.63071 2.5 6.25M16.25 6.25C16.25 4.86929 13.172 3.75 9.375 3.75C5.57804 3.75 2.5 4.86929 2.5 6.25M2.5 17.5C2.5 18.8807 5.57804 20 9.375 20C12.1113 20 14.4742 19.4187 15.5808 18.5772M16.25 11.875C16.25 13.2557 13.172 14.375 9.375 14.375C5.57804 14.375 2.5 13.2557 2.5 11.875" stroke="white" stroke-width="2" stroke-linecap="round" stroke-linejoin="round"/>
</svg>
