<svg width="100" height="100" viewBox="0 0 100 100" fill="none" xmlns="http://www.w3.org/2000/svg">
<rect width="100" height="100" rx="15" fill="#000AFF"/>
<path d="M50.5 65.7083C50.5 74.1077 57.309 80.9167 65.7083 80.9167C74.1077 80.9167 80.9167 74.1077 80.9167 65.7083C80.9167 57.309 74.1077 50.5 65.7083 50.5C57.309 50.5 50.5 57.309 50.5 65.7083ZM50.5 65.7083C50.5 62.2839 51.6318 59.1239 53.5417 56.5818V29.2083M50.5 65.7083C50.5 68.2188 51.1083 70.5872 52.1855 72.6741C49.623 74.8387 43.7045 76.3542 36.8125 76.3542C27.5732 76.3542 20.0833 73.6306 20.0833 70.2708V29.2083M53.5417 29.2083C53.5417 32.5681 46.0518 35.2917 36.8125 35.2917C27.5732 35.2917 20.0833 32.5681 20.0833 29.2083M53.5417 29.2083C53.5417 25.8486 46.0518 23.125 36.8125 23.125C27.5732 23.125 20.0833 25.8486 20.0833 29.2083M20.0833 56.5833C20.0833 59.9431 27.5732 62.6667 36.8125 62.6667C43.4707 62.6667 49.2204 61.2522 51.9133 59.2046M53.5417 42.8958C53.5417 46.2556 46.0518 48.9792 36.8125 48.9792C27.5732 48.9792 20.0833 46.2556 20.0833 42.8958" stroke="white" stroke-width="2" stroke-linecap="round" stroke-linejoin="round"/>
</svg>
