<svg width="52" height="52" viewBox="0 0 52 52" fill="none" xmlns="http://www.w3.org/2000/svg">
<g clip-path="url(#clip0_36_1371)">
<path fill-rule="evenodd" clip-rule="evenodd" d="M26.2011 0.800049C12.0574 0.800049 0.601562 12.1786 0.601562 26.2269C0.601562 37.4783 7.92944 46.9816 18.1053 50.3506C19.3852 50.5731 19.8652 49.8103 19.8652 49.1429C19.8652 48.539 19.8332 46.5366 19.8332 44.4071C13.4013 45.5831 11.7374 42.8497 11.2254 41.4194C10.9374 40.6884 9.68941 38.4318 8.60143 37.8279C7.70544 37.3512 6.42546 36.1752 8.56943 36.1434C10.5854 36.1116 12.0254 37.9868 12.5054 38.7496C14.8093 42.5954 18.4893 41.5148 19.9612 40.8473C20.1852 39.1946 20.8572 38.0822 21.5932 37.4465C15.8973 36.8108 9.9454 34.6178 9.9454 24.892C9.9454 22.1268 10.9374 19.8384 12.5694 18.0585C12.3134 17.4229 11.4174 14.8166 12.8254 11.3204C12.8254 11.3204 14.9693 10.653 19.8652 13.9267C21.9132 13.3546 24.0892 13.0685 26.2651 13.0685C28.4411 13.0685 30.6171 13.3546 32.665 13.9267C37.5609 10.6212 39.7049 11.3204 39.7049 11.3204C41.1129 14.8166 40.2169 17.4229 39.9609 18.0585C41.5929 19.8384 42.5849 22.095 42.5849 24.892C42.5849 34.6495 36.601 36.8108 30.9051 37.4465C31.833 38.2411 32.633 39.7667 32.633 42.1505C32.633 45.5513 32.601 48.2847 32.601 49.1429C32.601 49.8103 33.081 50.6049 34.361 50.3506C44.4728 46.9816 51.8007 37.4465 51.8007 26.2269C51.8007 12.1786 40.3449 0.800049 26.2011 0.800049Z" fill="#717171"/>
</g>
<defs>
<clipPath id="clip0_36_1371">
<rect width="51.1991" height="51.1991" fill="white" transform="translate(0.601562)"/>
</clipPath>
</defs>
</svg>
