<svg width="21" height="20" viewBox="0 0 21 20" fill="none" xmlns="http://www.w3.org/2000/svg">
<g clip-path="url(#clip0_198_2)">
<path d="M16.0604 5.8399C15.5587 5.83228 15.0705 5.67643 14.6571 5.39198C14.2438 5.10754 13.9239 4.70722 13.7375 4.24136C13.5512 3.7755 13.5068 3.26492 13.61 2.77391C13.7132 2.28289 13.9593 1.83337 14.3173 1.48189C14.6754 1.13041 15.1294 0.892666 15.6222 0.798613C16.1151 0.70456 16.6247 0.758387 17.0871 0.953309C17.5494 1.14823 17.9437 1.47555 18.2205 1.89407C18.4972 2.31258 18.644 2.8036 18.6423 3.30534C18.6472 3.64357 18.5835 3.9793 18.4548 4.29216C18.3262 4.60502 18.1354 4.88852 17.8941 5.12549C17.6527 5.36245 17.3657 5.54796 17.0505 5.67076C16.7353 5.79356 16.3984 5.8511 16.0604 5.8399Z" fill="#000"/>
<path d="M19.9462 12.7063C18.2419 10.1876 14.9017 10.3526 13.1377 11.8129C11.8511 12.8766 11.0788 13.9788 9.87123 14.1754C8.45125 14.4071 7.06286 13.9543 5.95531 12.8432C4.95132 11.8462 3.78409 11.1652 3.78409 9.2134C3.78409 7.75832 4.04387 7.26159 4.3563 6.6929C4.75474 5.96623 5.70782 5.44142 6.28705 4.36371C6.81362 3.38078 6.56263 1.67997 5.56917 0.812889C5.03122 0.355625 4.34429 0.111447 3.63842 0.126589C2.26408 0.126589 1.37418 0.795331 0.830057 1.94851C0.27365 3.14558 0.782662 4.58135 1.50581 5.30451C1.9179 5.71246 2.25795 6.18722 2.51156 6.70869C2.82272 7.50762 2.98742 8.35607 2.99776 9.2134C2.99776 10.3525 2.02185 11.4127 1.20041 12.2903C0.0472236 13.519 -0.158137 15.1601 0.0823291 16.0869C0.254856 16.834 0.645919 17.5129 1.20568 18.0369C1.57177 18.3753 2.00146 18.6375 2.46978 18.8083C2.93809 18.9791 3.43569 19.0551 3.93365 19.0319C4.43161 19.0087 4.92 18.8868 5.37042 18.6732C5.82084 18.4596 6.2243 18.1586 6.55736 17.7877C7.36827 16.8978 8.09317 15.8569 9.85542 16.1571C11.3719 16.4081 11.3895 17.2664 13.0657 18.7899C13.9135 19.5605 15.8548 20.2468 17.6469 19.6201C19.4951 18.976 20.7606 17.2084 20.7168 15.0653C20.6774 14.2239 20.4112 13.4087 19.9462 12.7063Z" fill="#000"/>
</g>
<defs>
<clipPath id="clip0_198_2">
<rect width="20.724" height="19.7463" fill="white" transform="translate(0 0.126793)"/>
</clipPath>
</defs>
</svg>
