<svg width="151" height="32" viewBox="0 0 151 32" fill="none" xmlns="http://www.w3.org/2000/svg">
<g clip-path="url(#clip0_85_10286)">
<path d="M16.0604 11.8399C15.5587 11.8323 15.0705 11.6764 14.6571 11.392C14.2438 11.1075 13.9239 10.7072 13.7375 10.2414C13.5512 9.7755 13.5068 9.26492 13.61 8.77391C13.7132 8.28289 13.9593 7.83337 14.3173 7.48189C14.6754 7.13041 15.1294 6.89267 15.6222 6.79861C16.1151 6.70456 16.6247 6.75839 17.0871 6.95331C17.5494 7.14823 17.9437 7.47555 18.2205 7.89407C18.4972 8.31258 18.644 8.8036 18.6423 9.30534C18.6472 9.64357 18.5835 9.9793 18.4548 10.2922C18.3262 10.605 18.1354 10.8885 17.8941 11.1255C17.6527 11.3625 17.3657 11.548 17.0505 11.6708C16.7353 11.7936 16.3984 11.8511 16.0604 11.8399Z" fill="#000"/>
<path d="M19.9462 18.7063C18.2419 16.1876 14.9017 16.3526 13.1377 17.8129C11.8511 18.8766 11.0788 19.9788 9.87123 20.1754C8.45125 20.4071 7.06286 19.9543 5.95531 18.8432C4.95132 17.8462 3.78409 17.1652 3.78409 15.2134C3.78409 13.7583 4.04387 13.2616 4.3563 12.6929C4.75474 11.9662 5.70782 11.4414 6.28705 10.3637C6.81362 9.38078 6.56263 7.67997 5.56917 6.81289C5.03122 6.35562 4.34429 6.11145 3.63842 6.12659C2.26408 6.12659 1.37418 6.79533 0.830057 7.94851C0.27365 9.14558 0.782662 10.5814 1.50581 11.3045C1.9179 11.7125 2.25795 12.1872 2.51156 12.7087C2.82272 13.5076 2.98742 14.3561 2.99776 15.2134C2.99776 16.3525 2.02185 17.4127 1.20041 18.2903C0.0472236 19.519 -0.158137 21.1601 0.0823291 22.0869C0.254856 22.834 0.645919 23.5129 1.20568 24.0369C1.57177 24.3753 2.00146 24.6375 2.46978 24.8083C2.93809 24.9791 3.43569 25.0551 3.93365 25.0319C4.43161 25.0087 4.92 24.8868 5.37042 24.6732C5.82084 24.4596 6.2243 24.1586 6.55736 23.7877C7.36827 22.8978 8.09317 21.8569 9.85542 22.1571C11.3719 22.4081 11.3895 23.2664 13.0657 24.7899C13.9135 25.5605 15.8548 26.2468 17.6469 25.6201C19.4951 24.976 20.7606 23.2084 20.7168 21.0653C20.6774 20.2239 20.4112 19.4087 19.9462 18.7063Z" fill="#000"/>
</g>
<path d="M29.9774 23.9999V6.8261H33.1178V21.5465H40.7233V23.9999H29.9774ZM45.1095 9.94193C44.5371 9.94193 44.0628 9.77019 43.6866 9.42671C43.3267 9.08324 43.1468 8.6498 43.1468 8.12641C43.1468 7.60302 43.3267 7.17776 43.6866 6.85064C44.0628 6.50716 44.5371 6.33542 45.1095 6.33542C45.682 6.33542 46.1482 6.50716 46.508 6.85064C46.8842 7.17776 47.0723 7.60302 47.0723 8.12641C47.0723 8.6498 46.8842 9.08324 46.508 9.42671C46.1482 9.77019 45.682 9.94193 45.1095 9.94193ZM43.5394 23.9999V11.8311H46.6797V23.9999H43.5394ZM59.6239 29.3974V22.258C59.2314 22.7978 58.708 23.2721 58.0537 23.681C57.4159 24.0899 56.5817 24.2944 55.5513 24.2944C54.4064 24.2944 53.3841 24.0163 52.4845 23.4602C51.5849 22.9041 50.8734 22.1435 50.3501 21.1785C49.8267 20.2135 49.565 19.1177 49.565 17.891C49.565 16.6643 49.8267 15.5766 50.3501 14.6279C50.8734 13.6629 51.5849 12.9105 52.4845 12.3708C53.3841 11.8147 54.4064 11.5366 55.5513 11.5366C56.4672 11.5366 57.2687 11.7084 57.9556 12.0519C58.6426 12.3953 59.1987 12.8778 59.6239 13.4994L59.9674 11.8311H62.7643V29.3974H59.6239ZM56.2137 21.5465C57.2278 21.5465 58.0537 21.2112 58.6916 20.5406C59.3459 19.8537 59.673 18.9786 59.673 17.9155C59.673 16.8524 59.3459 15.9855 58.6916 15.3149C58.0537 14.6279 57.2278 14.2845 56.2137 14.2845C55.216 14.2845 54.39 14.6198 53.7358 15.2904C53.0815 15.961 52.7544 16.8278 52.7544 17.891C52.7544 18.9541 53.0815 19.8292 53.7358 20.5161C54.39 21.2031 55.216 21.5465 56.2137 21.5465ZM70.5255 24.2944C69.0044 24.2944 67.8267 23.82 66.9926 22.8714C66.1748 21.9227 65.7659 20.5325 65.7659 18.7006V11.8311H68.8817V18.4062C68.8817 19.453 69.0943 20.2544 69.5196 20.8105C69.9448 21.3666 70.6154 21.6447 71.5314 21.6447C72.3982 21.6447 73.1097 21.3339 73.6658 20.7124C74.2383 20.0909 74.5245 19.224 74.5245 18.1118V11.8311H77.6649V23.9999H74.8925L74.6472 21.9391C74.271 22.6587 73.7231 23.2312 73.0034 23.6565C72.3001 24.0817 71.4741 24.2944 70.5255 24.2944ZM82.5815 9.94193C82.009 9.94193 81.5347 9.77019 81.1585 9.42671C80.7987 9.08324 80.6188 8.6498 80.6188 8.12641C80.6188 7.60302 80.7987 7.17776 81.1585 6.85064C81.5347 6.50716 82.009 6.33542 82.5815 6.33542C83.1539 6.33542 83.6201 6.50716 83.9799 6.85064C84.3561 7.17776 84.5442 7.60302 84.5442 8.12641C84.5442 8.6498 84.3561 9.08324 83.9799 9.42671C83.6201 9.77019 83.1539 9.94193 82.5815 9.94193ZM81.0113 23.9999V11.8311H84.1517V23.9999H81.0113ZM93.0232 24.2944C91.8783 24.2944 90.856 24.0163 89.9565 23.4602C89.0569 22.9041 88.3454 22.1435 87.822 21.1785C87.2986 20.2135 87.0369 19.1177 87.0369 17.891C87.0369 16.6643 87.2986 15.5766 87.822 14.6279C88.3454 13.6629 89.0569 12.9105 89.9565 12.3708C90.856 11.8147 91.8783 11.5366 93.0232 11.5366C93.9391 11.5366 94.7406 11.7084 95.4275 12.0519C96.1145 12.3953 96.6706 12.8778 97.0959 13.4994V6.33542H100.236V23.9999H97.4393L97.0959 22.258C96.7033 22.7978 96.1799 23.2721 95.5257 23.681C94.8878 24.0899 94.0536 24.2944 93.0232 24.2944ZM93.6856 21.5465C94.6997 21.5465 95.5257 21.2112 96.1636 20.5406C96.8178 19.8537 97.1449 18.9786 97.1449 17.9155C97.1449 16.8524 96.8178 15.9855 96.1636 15.3149C95.5257 14.6279 94.6997 14.2845 93.6856 14.2845C92.6879 14.2845 91.8619 14.6198 91.2077 15.2904C90.5534 15.961 90.2263 16.8278 90.2263 17.891C90.2263 18.9541 90.5534 19.8292 91.2077 20.5161C91.8619 21.2031 92.6879 21.5465 93.6856 21.5465ZM111.555 24.2944C109.837 24.2944 108.333 23.9182 107.041 23.1658C105.765 22.4134 104.759 21.3748 104.023 20.05C103.303 18.7088 102.943 17.1631 102.943 15.413C102.943 13.6629 103.303 12.1255 104.023 10.8006C104.759 9.45943 105.765 8.41264 107.041 7.66026C108.333 6.90789 109.837 6.5317 111.555 6.5317C113.256 6.5317 114.752 6.90789 116.045 7.66026C117.337 8.41264 118.343 9.45943 119.062 10.8006C119.782 12.1255 120.142 13.6629 120.142 15.413C120.142 17.1631 119.782 18.7088 119.062 20.05C118.343 21.3748 117.337 22.4134 116.045 23.1658C114.752 23.9182 113.256 24.2944 111.555 24.2944ZM111.555 21.4729C113.19 21.4729 114.491 20.9332 115.456 19.8537C116.437 18.7742 116.928 17.294 116.928 15.413C116.928 13.5321 116.437 12.0519 115.456 10.9724C114.491 9.89286 113.19 9.35311 111.555 9.35311C109.919 9.35311 108.611 9.89286 107.629 10.9724C106.648 12.0519 106.157 13.5321 106.157 15.413C106.157 17.294 106.648 18.7742 107.629 19.8537C108.611 20.9332 109.919 21.4729 111.555 21.4729ZM122.841 29.3974V11.8311H125.638L125.981 13.573C126.374 13.0332 126.889 12.5589 127.527 12.15C128.181 11.7411 129.023 11.5366 130.054 11.5366C131.199 11.5366 132.221 11.8147 133.121 12.3708C134.02 12.9269 134.732 13.6875 135.255 14.6525C135.779 15.6175 136.04 16.7133 136.04 17.94C136.04 19.1667 135.779 20.2626 135.255 21.2276C134.732 22.1762 134.02 22.9286 133.121 23.4847C132.221 24.0245 131.199 24.2944 130.054 24.2944C129.138 24.2944 128.337 24.1226 127.65 23.7791C126.963 23.4357 126.407 22.9532 125.981 22.3316V29.3974H122.841ZM129.391 21.5465C130.389 21.5465 131.215 21.2112 131.869 20.5406C132.524 19.87 132.851 19.0032 132.851 17.94C132.851 16.8769 132.524 16.0018 131.869 15.3149C131.215 14.6279 130.389 14.2845 129.391 14.2845C128.377 14.2845 127.543 14.6279 126.889 15.3149C126.251 15.9855 125.932 16.8524 125.932 17.9155C125.932 18.9786 126.251 19.8537 126.889 20.5406C127.543 21.2112 128.377 21.5465 129.391 21.5465ZM143.875 24.2944C142.796 24.2944 141.847 24.1226 141.029 23.7791C140.211 23.4193 139.557 22.9286 139.066 22.3071C138.576 21.6856 138.281 20.9659 138.183 20.1481H141.348C141.446 20.6224 141.708 21.0313 142.133 21.3748C142.575 21.7019 143.139 21.8655 143.826 21.8655C144.513 21.8655 145.012 21.7265 145.323 21.4484C145.65 21.1703 145.813 20.8514 145.813 20.4916C145.813 19.9682 145.584 19.6165 145.126 19.4366C144.668 19.2403 144.03 19.0522 143.213 18.8723C142.689 18.7578 142.158 18.6188 141.618 18.4552C141.078 18.2917 140.579 18.0872 140.121 17.8419C139.68 17.5802 139.32 17.2531 139.042 16.8605C138.764 16.4516 138.625 15.9528 138.625 15.364C138.625 14.2845 139.05 13.3767 139.901 12.6407C140.767 11.9047 141.978 11.5366 143.532 11.5366C144.971 11.5366 146.116 11.8719 146.966 12.5425C147.833 13.2131 148.348 14.1373 148.512 15.3149H145.543C145.363 14.4153 144.685 13.9655 143.507 13.9655C142.918 13.9655 142.46 14.08 142.133 14.309C141.822 14.538 141.667 14.8242 141.667 15.1677C141.667 15.5275 141.904 15.8137 142.378 16.0264C142.853 16.239 143.482 16.4353 144.268 16.6152C145.118 16.8115 145.895 17.0323 146.598 17.2776C147.318 17.5066 147.89 17.8583 148.316 18.3326C148.741 18.7905 148.954 19.453 148.954 20.3198C148.97 21.0722 148.774 21.751 148.365 22.3562C147.956 22.9613 147.367 23.4357 146.598 23.7791C145.83 24.1226 144.922 24.2944 143.875 24.2944Z" fill="#000"/>
<defs>
<clipPath id="clip0_85_10286">
<rect width="20.724" height="19.7463" fill="white" transform="translate(0 6.12679)"/>
</clipPath>
</defs>
</svg>
