<svg width="155" height="48" viewBox="0 0 155 48" fill="none" xmlns="http://www.w3.org/2000/svg">
<path d="M69.2656 34.0783C67.3274 34.0783 65.6292 33.6537 64.1709 32.8046C62.7311 31.9555 61.5959 30.7834 60.7653 29.2882C59.9531 27.7746 59.547 26.0303 59.547 24.0552C59.547 22.0801 59.9531 20.3449 60.7653 18.8498C61.5959 17.3362 62.7311 16.1548 64.1709 15.3057C65.6292 14.4566 67.3274 14.032 69.2656 14.032C71.1853 14.032 72.8742 14.4566 74.3325 15.3057C75.7907 16.1548 76.926 17.3362 77.7381 18.8498C78.5503 20.3449 78.9564 22.0801 78.9564 24.0552C78.9564 26.0303 78.5503 27.7746 77.7381 29.2882C76.926 30.7834 75.7907 31.9555 74.3325 32.8046C72.8742 33.6537 71.1853 34.0783 69.2656 34.0783ZM69.2656 30.8941C71.1114 30.8941 72.5789 30.285 73.668 29.0667C74.7755 27.8484 75.3293 26.1779 75.3293 24.0552C75.3293 21.9324 74.7755 20.2619 73.668 19.0436C72.5789 17.8253 71.1114 17.2162 69.2656 17.2162C67.4197 17.2162 65.943 17.8253 64.8354 19.0436C63.7279 20.2619 63.1741 21.9324 63.1741 24.0552C63.1741 26.1779 63.7279 27.8484 64.8354 29.0667C65.943 30.285 67.4197 30.8941 69.2656 30.8941ZM88.1216 33.746C86.6819 33.746 85.5282 33.3953 84.6606 32.6939C83.7931 31.9924 83.3593 30.7465 83.3593 28.956V22.9753H81.0058V20.0127H83.3593L83.7746 16.3302H86.9034V20.0127H90.6136V22.9753H86.9034V28.9837C86.9034 29.6482 87.0418 30.1096 87.3187 30.3681C87.614 30.608 88.1124 30.728 88.8138 30.728H90.5305V33.746H88.1216ZM93.6565 33.746V13.8105H97.2006V22.117C97.662 21.3602 98.2804 20.7695 99.0557 20.3449C99.8494 19.9019 100.754 19.6804 101.769 19.6804C103.467 19.6804 104.778 20.2157 105.701 21.2863C106.642 22.357 107.113 23.926 107.113 25.9933V33.746H103.597V26.3256C103.597 25.1442 103.357 24.2398 102.877 23.6122C102.415 22.9846 101.677 22.6708 100.662 22.6708C99.6648 22.6708 98.8342 23.0215 98.1696 23.7229C97.5236 24.4243 97.2006 25.4027 97.2006 26.6579V33.746H93.6565ZM117.175 34.0783C115.79 34.0783 114.563 33.783 113.492 33.1923C112.422 32.6016 111.582 31.7709 110.973 30.7003C110.363 29.6297 110.059 28.393 110.059 26.9901C110.059 25.5688 110.354 24.3044 110.945 23.1968C111.554 22.0893 112.385 21.231 113.437 20.6218C114.507 19.9942 115.763 19.6804 117.202 19.6804C118.55 19.6804 119.741 19.9758 120.774 20.5665C121.808 21.1571 122.611 21.9693 123.183 23.003C123.774 24.0182 124.069 25.1535 124.069 26.4087C124.069 26.6117 124.06 26.824 124.041 27.0455C124.041 27.267 124.032 27.4977 124.014 27.7377H113.575C113.649 28.8083 114.018 29.6482 114.683 30.2573C115.366 30.8665 116.187 31.171 117.147 31.171C117.867 31.171 118.467 31.0141 118.947 30.7003C119.445 30.3681 119.814 29.9435 120.054 29.4267H123.654C123.395 30.2942 122.962 31.088 122.352 31.8079C121.762 32.5093 121.023 33.0631 120.137 33.4692C119.27 33.8752 118.282 34.0783 117.175 34.0783ZM117.202 22.56C116.335 22.56 115.569 22.8092 114.904 23.3076C114.24 23.7875 113.815 24.5259 113.631 25.5226H120.47C120.414 24.6182 120.082 23.8983 119.473 23.363C118.864 22.8277 118.107 22.56 117.202 22.56ZM127.05 33.746V20.0127H130.179L130.456 22.3385C130.88 21.5263 131.489 20.8803 132.283 20.4003C133.095 19.9204 134.046 19.6804 135.135 19.6804C136.833 19.6804 138.153 20.2157 139.094 21.2863C140.036 22.357 140.506 23.926 140.506 25.9933V33.746H136.962V26.3256C136.962 25.1442 136.722 24.2398 136.242 23.6122C135.762 22.9846 135.015 22.6708 134 22.6708C133.003 22.6708 132.181 23.0215 131.535 23.7229C130.908 24.4243 130.594 25.4027 130.594 26.6579V33.746H127.05ZM150.014 33.746C148.575 33.746 147.421 33.3953 146.553 32.6939C145.686 31.9924 145.252 30.7465 145.252 28.956V22.9753H142.899V20.0127H145.252L145.667 16.3302H148.796V20.0127H152.506V22.9753H148.796V28.9837C148.796 29.6482 148.935 30.1096 149.212 30.3681C149.507 30.608 150.005 30.728 150.707 30.728H152.423V33.746H150.014Z" fill="#9A9A9A"/>
<rect x="0.681763" y="11.6634" width="45.022" height="24.7111" rx="12.3555" fill="#9A9A9A"/>
<rect x="21.6107" y="12.4941" width="23.2623" height="23.0495" rx="11.5247" fill="#F7F7FA"/>
</svg>
