<svg width="531" height="132" viewBox="0 0 531 132" fill="none" xmlns="http://www.w3.org/2000/svg">
<path fill-rule="evenodd" clip-rule="evenodd" d="M78.638 19.1584C73.1136 16.8709 67.1928 15.6939 61.2136 15.6948C57.9331 15.6953 54.6622 16.0488 51.4573 16.7493C46.3916 12.2076 41.7205 8.17056 37.5735 4.74164C48.6546 0.107553 60.8538 -1.16574 72.6531 1.08021C84.4524 3.32616 95.3307 8.9922 103.934 17.3732C112.538 25.7543 118.488 36.4803 121.042 48.2166C123.597 59.9529 122.644 72.1814 118.302 83.3802C114.472 79.1491 110.318 74.6656 105.899 69.9945C106.461 67.104 106.745 64.1663 106.747 61.2217C106.747 55.2424 105.569 49.3218 103.281 43.7978C100.992 38.2738 97.6384 33.2546 93.4101 29.027C89.1819 24.7993 84.1623 21.446 78.638 19.1584ZM6.58396 5.24626C9.65058 2.17965 40.4332 27.9806 75.3304 62.8779C110.228 97.7752 136.029 128.558 132.956 131.624C131.034 133.546 118.237 124.139 100.368 108.269C88.5064 118.142 73.3529 123.17 57.9418 122.346C42.5307 121.523 27.9997 114.908 17.2583 103.826C6.51694 92.7443 0.358134 78.0141 0.0151341 62.5848C-0.327865 47.1555 5.17026 32.1662 15.4086 20.6181C8.71895 12.0976 5.3612 6.46902 6.58396 5.24626ZM37.0015 99.7879C44.2562 104.341 52.6487 106.753 61.2137 106.749C71.1041 106.762 80.7271 103.538 88.6126 97.5681C80.9461 90.4386 72.7038 82.4874 64.2091 73.9992C49.096 58.8861 35.6974 44.5429 25.5983 32.8975C20.2617 39.5968 16.9244 47.6663 15.9701 56.178C15.0159 64.6896 16.4834 73.2978 20.2039 81.0125C23.9244 88.7272 29.7468 95.2352 37.0015 99.7879Z" fill="url(#paint0_linear_1_6)"/>
<path d="M194.489 88.2872C190.233 88.2872 186.288 87.5778 182.656 86.159C179.081 84.7402 175.959 82.7822 173.292 80.2851C170.682 77.7313 168.61 74.6951 167.078 71.1764C165.602 67.6578 164.864 63.7703 164.864 59.5139C164.864 55.2575 165.602 51.3416 167.078 47.7662C168.61 44.134 170.682 41.0411 173.292 38.4872C175.959 35.8766 179.081 33.8335 182.656 32.358C186.288 30.8824 190.233 30.1446 194.489 30.1446C198.802 30.1446 202.775 30.8824 206.407 32.358C210.039 33.8335 213.189 35.8766 215.856 38.4872C218.524 41.0411 220.595 44.134 222.071 47.7662C223.603 51.3416 224.369 55.2575 224.369 59.5139C224.369 63.7703 223.603 67.6578 222.071 71.1764C220.595 74.6951 218.524 77.7313 215.856 80.2851C213.189 82.7822 210.039 84.7402 206.407 86.159C202.775 87.5778 198.802 88.2872 194.489 88.2872ZM194.489 79.9446C197.61 79.9446 200.448 79.4622 203.002 78.4975C205.556 77.4759 207.741 76.0855 209.557 74.3262C211.373 72.5101 212.763 70.3251 213.728 67.7713C214.75 65.2175 215.26 62.4082 215.26 59.3436C215.26 56.3358 214.75 53.5549 213.728 51.0011C212.763 48.4472 211.373 46.2623 209.557 44.4462C207.741 42.5734 205.556 41.1262 203.002 40.1046C200.448 39.0264 197.61 38.4872 194.489 38.4872C191.481 38.4872 188.7 39.0264 186.147 40.1046C183.649 41.1262 181.493 42.5734 179.677 44.4462C177.917 46.2623 176.527 48.4472 175.505 51.0011C174.541 53.5549 174.058 56.3358 174.058 59.3436C174.058 62.4082 174.541 65.2175 175.505 67.7713C176.527 70.3251 177.917 72.5101 179.677 74.3262C181.493 76.0855 183.649 77.4759 186.147 78.4975C188.7 79.4622 191.481 79.9446 194.489 79.9446ZM199.001 86.6698L208.11 83.8605L222.666 99.6944H211.174L199.001 86.6698ZM261.073 70.0698V47.5108H269.245V71.2616C269.245 73.7587 268.791 76.0571 267.883 78.1569C267.032 80.2568 265.811 82.0728 264.222 83.6051C262.633 85.0807 260.704 86.2441 258.434 87.0954C256.22 87.8899 253.78 88.2872 251.113 88.2872C248.389 88.2872 245.92 87.8899 243.706 87.0954C241.493 86.2441 239.564 85.0807 237.918 83.6051C236.329 82.1296 235.08 80.3703 234.172 78.3272C233.321 76.2274 232.895 73.9289 232.895 71.4318V47.5108H241.153V70.0698C241.153 73.1344 242.061 75.6598 243.877 77.6462C245.693 79.5757 248.105 80.5405 251.113 80.5405C254.12 80.5405 256.532 79.5757 258.349 77.6462C260.165 75.6598 261.073 73.1344 261.073 70.0698ZM312.451 87.4359L311.77 81.9877C310.295 83.9173 308.394 85.4496 306.067 86.5846C303.797 87.7197 300.959 88.2872 297.554 88.2872C294.716 88.2872 292.049 87.7764 289.552 86.7549C287.112 85.6766 284.983 84.2294 283.167 82.4134C281.408 80.5405 280.018 78.3272 278.996 75.7734C277.975 73.1628 277.464 70.3251 277.464 67.2605C277.464 64.1959 277.975 61.4151 278.996 58.918C280.018 56.3641 281.408 54.1792 283.167 52.3631C284.983 50.547 287.112 49.1566 289.552 48.1918C292.049 47.1703 294.716 46.6595 297.554 46.6595C300.959 46.6595 303.797 47.227 306.067 48.3621C308.394 49.4971 310.295 51.0294 311.77 52.959L312.281 47.5108H320.028V87.4359H312.451ZM298.49 80.881C300.42 80.881 302.179 80.5122 303.768 79.7744C305.414 79.0366 306.805 78.0718 307.94 76.88C309.131 75.6315 310.039 74.1843 310.664 72.5385C311.345 70.8927 311.685 69.1334 311.685 67.2605C311.685 65.4445 311.345 63.7419 310.664 62.1528C310.039 60.507 309.131 59.0882 307.94 57.8964C306.805 56.7046 305.414 55.7682 303.768 55.0872C302.179 54.4062 300.42 54.0657 298.49 54.0657C296.561 54.0657 294.802 54.4062 293.212 55.0872C291.68 55.7682 290.346 56.7046 289.211 57.8964C288.133 59.0882 287.282 60.507 286.658 62.1528C286.033 63.7419 285.721 65.4445 285.721 67.2605C285.721 69.1334 286.033 70.8927 286.658 72.5385C287.282 74.1843 288.133 75.6315 289.211 76.88C290.346 78.0718 291.68 79.0366 293.212 79.7744C294.802 80.5122 296.561 80.881 298.49 80.881ZM331.797 87.4359V47.5108H338.948L339.629 52.5334C339.97 52.0226 340.481 51.4267 341.162 50.7457C341.899 50.0646 342.807 49.4404 343.886 48.8728C344.964 48.2486 346.213 47.7378 347.631 47.3405C349.107 46.8865 350.724 46.6595 352.484 46.6595C355.208 46.6595 357.62 47.0852 359.72 47.9364C361.876 48.731 363.664 49.866 365.083 51.3416C366.501 52.7604 367.58 54.4913 368.317 56.5344C369.055 58.5775 369.424 60.7908 369.424 63.1744V87.4359H361.252V64.9621C361.252 61.6137 360.344 59.0315 358.528 57.2154C356.768 55.3993 354.328 54.4913 351.207 54.4913C349.731 54.4913 348.341 54.7183 347.035 55.1723C345.73 55.6264 344.567 56.3074 343.545 57.2154C342.524 58.1234 341.701 59.2301 341.076 60.5354C340.509 61.8407 340.225 63.3163 340.225 64.9621L340.055 87.4359H331.797ZM375.475 54.4913V47.5108H382.796V36.2739L390.798 34.5713V47.5108H403.908V54.4913H390.883V73.4749C390.883 76.3693 391.678 78.3272 393.267 79.3487C394.912 80.3703 397.012 80.881 399.566 80.881C400.02 80.881 400.503 80.8527 401.013 80.7959C401.581 80.7392 402.092 80.654 402.546 80.5405V87.7764C401.865 87.9467 401.098 88.0602 400.247 88.1169C399.453 88.2304 398.658 88.2872 397.864 88.2872C395.594 88.2872 393.522 88.0034 391.649 87.4359C389.776 86.8684 388.187 85.9887 386.882 84.7969C385.577 83.6051 384.555 82.1012 383.817 80.2851C383.08 78.4123 382.711 76.199 382.711 73.6451V54.4913H375.475ZM439.23 70.0698V47.5108H447.402V71.2616C447.402 73.7587 446.948 76.0571 446.04 78.1569C445.189 80.2568 443.969 82.0728 442.38 83.6051C440.791 85.0807 438.861 86.2441 436.591 87.0954C434.378 87.8899 431.937 88.2872 429.27 88.2872C426.546 88.2872 424.077 87.8899 421.864 87.0954C419.65 86.2441 417.721 85.0807 416.075 83.6051C414.486 82.1296 413.237 80.3703 412.329 78.3272C411.478 76.2274 411.052 73.9289 411.052 71.4318V47.5108H419.31V70.0698C419.31 73.1344 420.218 75.6598 422.034 77.6462C423.85 79.5757 426.262 80.5405 429.27 80.5405C432.278 80.5405 434.69 79.5757 436.506 77.6462C438.322 75.6598 439.23 73.1344 439.23 70.0698ZM466.773 87.4359H458.515V47.5108H465.751L466.773 52.5334C467.113 52.0226 467.596 51.4267 468.22 50.7457C468.901 50.0646 469.724 49.4404 470.689 48.8728C471.71 48.2486 472.874 47.7378 474.179 47.3405C475.541 46.8865 477.102 46.6595 478.861 46.6595C482.323 46.6595 485.246 47.3405 487.629 48.7026C490.013 50.0079 491.829 51.824 493.077 54.1508C493.702 53.186 494.468 52.2496 495.376 51.3416C496.284 50.4335 497.334 49.639 498.526 48.958C499.774 48.277 501.136 47.7378 502.612 47.3405C504.087 46.8865 505.676 46.6595 507.379 46.6595C510.046 46.6595 512.402 47.0852 514.445 47.9364C516.488 48.731 518.19 49.866 519.552 51.3416C520.914 52.7604 521.936 54.4913 522.617 56.5344C523.355 58.5775 523.724 60.7908 523.724 63.1744V87.4359H515.466V64.9621C515.466 61.6137 514.643 59.0315 512.997 57.2154C511.352 55.3993 509.053 54.4913 506.102 54.4913C504.627 54.4913 503.236 54.7183 501.931 55.1723C500.682 55.6264 499.547 56.279 498.526 57.1303C497.561 57.9816 496.795 59.0315 496.227 60.28C495.66 61.4718 495.348 62.8622 495.291 64.4513V87.4359H487.033V64.9621C487.033 61.6137 486.182 59.0315 484.48 57.2154C482.834 55.3993 480.535 54.4913 477.584 54.4913C476.109 54.4913 474.718 54.7183 473.413 55.1723C472.108 55.6264 470.944 56.3074 469.923 57.2154C468.958 58.1234 468.192 59.2301 467.624 60.5354C467.057 61.8407 466.773 63.3163 466.773 64.9621V87.4359Z" fill="white"/>
<defs>
<linearGradient id="paint0_linear_1_6" x1="-21.6625" y1="15.3971" x2="101.345" y2="138.405" gradientUnits="userSpaceOnUse">
<stop stop-color="#CCDBFF"/>
<stop offset="0.34" stop-color="white"/>
<stop offset="0.67" stop-color="#CCDBFF"/>
<stop offset="0.91" stop-color="#596FC2"/>
</linearGradient>
</defs>
</svg>
