<svg width="22" height="22" viewBox="0 0 22 22" fill="none" xmlns="http://www.w3.org/2000/svg">
<path d="M15.125 12.8333H15.1342M2.75 4.58333V17.4167C2.75 18.4292 3.57081 19.25 4.58333 19.25H17.4167C18.4292 19.25 19.25 18.4292 19.25 17.4167V8.25C19.25 7.23748 18.4292 6.41667 17.4167 6.41667L4.58333 6.41667C3.57081 6.41667 2.75 5.59586 2.75 4.58333ZM2.75 4.58333C2.75 3.57081 3.57081 2.75 4.58333 2.75H15.5833M15.5833 12.8333C15.5833 13.0865 15.3781 13.2917 15.125 13.2917C14.8719 13.2917 14.6667 13.0865 14.6667 12.8333C14.6667 12.5802 14.8719 12.375 15.125 12.375C15.3781 12.375 15.5833 12.5802 15.5833 12.8333Z" stroke="#717171" stroke-width="1.46667" stroke-linecap="round" stroke-linejoin="round"/>
</svg>
