<svg width="105" height="109" viewBox="0 0 105 109" fill="none" xmlns="http://www.w3.org/2000/svg">
<path d="M58.8053 41.7827L51.8689 14.5218C50.7506 10.1347 44.5258 10.1347 43.4075 14.5218L36.471 41.7827C36.08 43.3076 34.907 44.5041 33.3899 44.9186L3.21202 53.1688C-1.15943 54.3653 -1.03429 60.6058 3.37626 61.6302L31.169 68.0818C32.7408 68.4493 33.992 69.6536 34.3987 71.2176L43.4075 105.345C44.5492 109.677 50.7036 109.677 51.8454 105.345L60.8542 71.2176C61.2686 69.6536 62.512 68.4493 64.0839 68.0818L91.8766 61.6302C96.2871 60.6058 96.4123 54.3653 92.0408 53.1688L61.8629 44.9186C60.3693 44.4963 59.1963 43.2998 58.8053 41.7827Z" fill="#E98A8B"/>
<path d="M89.9999 12.2229L87.2237 1.31378C86.778 -0.437927 84.2834 -0.437927 83.8376 1.31378L81.0615 12.2229C80.9051 12.8328 80.4359 13.3098 79.8337 13.4741L67.7594 16.7742C66.0077 17.2512 66.0624 19.7458 67.822 20.1603L78.9422 22.7409C79.5756 22.8895 80.0683 23.3665 80.2325 24L83.8376 37.6539C84.299 39.39 86.7545 39.39 87.2159 37.6539L90.821 24C90.9852 23.3744 91.4857 22.8895 92.1113 22.7409L103.232 20.1603C104.999 19.7536 105.046 17.2512 103.294 16.7742L91.2198 13.4741C90.6255 13.3098 90.1563 12.8328 89.9999 12.2229Z" fill="#E98A8B"/>
</svg>
