<svg width="13" height="14" viewBox="0 0 13 14" fill="none" xmlns="http://www.w3.org/2000/svg">
<path d="M2.125 5.125V10.125M4.9375 5.125V10.125M8.0625 5.125V10.125M10.875 5.125V10.125M0.875 11.125L0.875 11.625C0.875 11.975 0.875 12.15 0.943121 12.2837C1.00304 12.4013 1.09865 12.497 1.21626 12.5569C1.34995 12.625 1.52497 12.625 1.875 12.625H11.125C11.475 12.625 11.65 12.625 11.7837 12.5569C11.9013 12.497 11.997 12.4013 12.0569 12.2837C12.125 12.15 12.125 11.975 12.125 11.625V11.125C12.125 10.775 12.125 10.5999 12.0569 10.4663C11.997 10.3487 11.9013 10.253 11.7837 10.1931C11.65 10.125 11.475 10.125 11.125 10.125H1.875C1.52497 10.125 1.34995 10.125 1.21626 10.1931C1.09865 10.253 1.00304 10.3487 0.943121 10.4663C0.875 10.5999 0.875 10.775 0.875 11.125ZM6.28307 1.4232L1.65807 2.45098C1.37866 2.51307 1.23895 2.54412 1.13467 2.61925C1.04268 2.68552 0.970454 2.77556 0.925718 2.87973C0.875 2.99783 0.875 3.14094 0.875 3.42717L0.875 4.125C0.875 4.47503 0.875 4.65005 0.943121 4.78374C1.00304 4.90134 1.09865 4.99696 1.21626 5.05688C1.34995 5.125 1.52497 5.125 1.875 5.125H11.125C11.475 5.125 11.65 5.125 11.7837 5.05688C11.9013 4.99696 11.997 4.90134 12.0569 4.78374C12.125 4.65005 12.125 4.47503 12.125 4.125V3.42717C12.125 3.14094 12.125 2.99783 12.0743 2.87973C12.0295 2.77556 11.9573 2.68552 11.8653 2.61925C11.7611 2.54412 11.6213 2.51307 11.3419 2.45098L6.71693 1.4232C6.63598 1.40521 6.5955 1.39622 6.5546 1.39263C6.51827 1.38945 6.48173 1.38945 6.4454 1.39263C6.4045 1.39622 6.36402 1.40521 6.28307 1.4232Z" stroke="black" stroke-width="1.25" stroke-linecap="round" stroke-linejoin="round"/>
</svg>
