<svg width="62" height="62" viewBox="0 0 62 62" fill="none" xmlns="http://www.w3.org/2000/svg">
<path d="M1.40493 53.4471C-0.455879 55.3064 -0.493209 58.608 1.44233 60.5435C3.41524 62.4791 6.71823 62.441 8.54167 60.6198L31.006 38.1533L53.4329 60.5817C55.3311 62.4791 58.5967 62.4791 60.5323 60.5435C62.4678 58.5699 62.4679 55.3445 60.5697 53.4471L38.1427 31.0187L60.5697 8.55295C62.4679 6.65552 62.5052 3.392 60.5323 1.45646C58.5967 -0.479085 55.3311 -0.479087 53.4329 1.41834L31.006 23.8467L8.54167 1.41834C6.71823 -0.440974 3.37788 -0.517198 1.44233 1.45646C-0.493209 3.392 -0.455879 6.731 1.40493 8.55295L23.8319 31.0187L1.40493 53.4471Z" fill="#6D6AFF"/>
</svg>
