<svg width="10" height="10" viewBox="0 0 10 10" fill="none" xmlns="http://www.w3.org/2000/svg">
<path d="M0.708944 8.62362C0.439194 8.89315 0.433782 9.37177 0.714366 9.65235C1.00037 9.93293 1.47918 9.92741 1.74351 9.6634L5.00003 6.40658L8.25112 9.65787C8.52628 9.93293 8.99968 9.93293 9.28026 9.65235C9.56085 9.36624 9.56085 8.89867 9.28569 8.62362L6.03459 5.37232L9.28569 2.1156C9.56085 1.84054 9.56626 1.36745 9.28026 1.08687C8.99968 0.806282 8.52628 0.806282 8.25112 1.08134L5.00003 4.33264L1.74351 1.08134C1.47918 0.811807 0.994949 0.800758 0.714366 1.08687C0.433782 1.36745 0.439194 1.85148 0.708944 2.1156L3.96003 5.37232L0.708944 8.62362Z" fill="#6D6AFF"/>
</svg>
