<svg width="10" height="10" viewBox="0 0 10 10" fill="none" xmlns="http://www.w3.org/2000/svg">
<path d="M2.08337 6.25001C1.69509 6.25001 1.50095 6.25001 1.3478 6.18658C1.14361 6.102 0.981386 5.93977 0.896808 5.73558C0.833374 5.58244 0.833374 5.38829 0.833374 5.00001V2.16668C0.833374 1.69997 0.833374 1.46661 0.924202 1.28835C1.0041 1.13155 1.13158 1.00407 1.28838 0.924171C1.46664 0.833344 1.7 0.833344 2.16671 0.833344H5.00004C5.38833 0.833344 5.58247 0.833344 5.73561 0.896777C5.9398 0.981356 6.10203 1.14358 6.18661 1.34777C6.25004 1.50092 6.25004 1.69506 6.25004 2.08334M5.08337 9.16668H7.83337C8.30008 9.16668 8.53344 9.16668 8.7117 9.07585C8.8685 8.99595 8.99599 8.86847 9.07588 8.71167C9.16671 8.53341 9.16671 8.30005 9.16671 7.83334V5.08334C9.16671 4.61663 9.16671 4.38328 9.07588 4.20502C8.99599 4.04822 8.8685 3.92073 8.7117 3.84084C8.53344 3.75001 8.30008 3.75001 7.83337 3.75001H5.08337C4.61666 3.75001 4.38331 3.75001 4.20505 3.84084C4.04825 3.92073 3.92076 4.04822 3.84087 4.20502C3.75004 4.38328 3.75004 4.61663 3.75004 5.08334V7.83334C3.75004 8.30005 3.75004 8.53341 3.84087 8.71167C3.92076 8.86847 4.04825 8.99595 4.20505 9.07585C4.38331 9.16668 4.61666 9.16668 5.08337 9.16668Z" stroke="#B3B3FB" stroke-linecap="round" stroke-linejoin="round"/>
</svg>
