<svg width="564" height="564" viewBox="0 0 564 564" fill="none" xmlns="http://www.w3.org/2000/svg">
<path d="M282.001 235V376M282.001 376L211.501 305.5M282.001 376L352.501 305.5M399.501 493.5H164.501C152.035 493.5 140.081 488.548 131.267 479.734C122.452 470.92 117.501 458.965 117.501 446.5V117.5C117.501 105.035 122.452 93.0802 131.267 84.266C140.081 75.4518 152.035 70.5 164.501 70.5H295.772C302.004 70.5013 307.98 72.9781 312.386 77.3855L439.615 204.614C444.022 209.021 446.499 214.997 446.501 221.229V446.5C446.501 458.965 441.549 470.92 432.735 479.734C423.92 488.548 411.966 493.5 399.501 493.5Z" stroke="#6D6AFF" stroke-width="47" stroke-linecap="round" stroke-linejoin="round"/>
</svg>
