<svg id="SvgjsSvg1001" width="288" height="288" xmlns="http://www.w3.org/2000/svg" version="1.1" xmlns:xlink="http://www.w3.org/1999/xlink" xmlns:svgjs="http://svgjs.com/svgjs"><defs id="SvgjsDefs1002"></defs><g id="SvgjsG1008"><svg xmlns="http://www.w3.org/2000/svg" viewBox="0 0 32 32" width="288" height="288"><g fill="#b3b3fb" fill-rule="nonzero" class="color140A0A svgShape"><path d="M30.02 20h-.04A1.98 1.98 0 0 0 28 21.98V27a1 1 0 0 1-1 1H5a1 1 0 0 1-1-1V5a1 1 0 0 1 1-1h9.02A1.98 1.98 0 0 0 16 2.02v-.04A1.98 1.98 0 0 0 14.02 0H1.98A1.98 1.98 0 0 0 0 1.98v28.04A1.98 1.98 0 0 0 1.98 32h28.04A1.98 1.98 0 0 0 32 30.02l-.02-.02H32v-8.02A1.98 1.98 0 0 0 30.02 20z"></path><path d="M24.944 5.712c-5.679.405-10.05 2.269-13.013 5.561a15.425 15.425 0 0 0-3.868 9.352 2.125 2.125 0 0 0 2.11 2.361l.1-.01a1.948 1.948 0 0 0 1.732-1.808 12.183 12.183 0 0 1 2.929-7.252c2.207-2.432 5.593-3.83 10.066-4.19V10h-.056l-.043.268-2.305 2.327a2.017 2.017 0 0 0 0 2.833 1.97 1.97 0 0 0 2.806 0l6.016-6.074a2.017 2.017 0 0 0 0-2.834l-6-5.933a1.97 1.97 0 0 0-2.805 0 2.016 2.016 0 0 0 0 2.834l2.331 2.29z"></path></g></svg></g></svg>