<svg width="22" height="22" viewBox="0 0 22 22" fill="none" xmlns="http://www.w3.org/2000/svg">
<path d="M5.49992 5.50001L7.33325 3.66668M7.33325 3.66668L5.49992 1.83334M7.33325 3.66668H5.49992C3.47487 3.66668 1.83325 5.3083 1.83325 7.33334M16.4999 16.5L14.6666 18.3333M14.6666 18.3333L16.4999 20.1667M14.6666 18.3333H16.4999C18.525 18.3333 20.1666 16.6917 20.1666 14.6667M9.33986 5.95834C9.95042 3.58616 12.1038 1.83334 14.6666 1.83334C17.7042 1.83334 20.1666 4.29578 20.1666 7.33334C20.1666 9.8961 18.4138 12.0495 16.0416 12.6601M12.8333 14.6667C12.8333 17.7042 10.3708 20.1667 7.33325 20.1667C4.29569 20.1667 1.83325 17.7042 1.83325 14.6667C1.83325 11.6291 4.29569 9.16668 7.33325 9.16668C10.3708 9.16668 12.8333 11.6291 12.8333 14.6667Z" stroke="white" stroke-width="2" stroke-linecap="round" stroke-linejoin="round"/>
</svg>
