<svg width="16" height="13" viewBox="0 0 16 13" fill="none" xmlns="http://www.w3.org/2000/svg">
<path d="M1.95677 7.19411C2.38986 7.19411 2.74094 6.84303 2.74094 6.40994C2.74094 5.97686 2.38986 5.62578 1.95677 5.62578C1.52369 5.62578 1.17261 5.97686 1.17261 6.40994C1.17261 6.84303 1.52369 7.19411 1.95677 7.19411Z" fill="#6D6AFF"/>
<path d="M1.95677 2.48911C2.38986 2.48911 2.74094 2.13803 2.74094 1.70494C2.74094 1.27186 2.38986 0.920776 1.95677 0.920776C1.52369 0.920776 1.17261 1.27186 1.17261 1.70494C1.17261 2.13803 1.52369 2.48911 1.95677 2.48911Z" fill="#6D6AFF"/>
<path d="M1.95677 11.8991C2.38986 11.8991 2.74094 11.548 2.74094 11.1149C2.74094 10.6819 2.38986 10.3308 1.95677 10.3308C1.52369 10.3308 1.17261 10.6819 1.17261 11.1149C1.17261 11.548 1.52369 11.8991 1.95677 11.8991Z" fill="#6D6AFF"/>
<path d="M15.2876 6.40994L5.87761 6.40994M15.2876 1.70494L5.87761 1.70494M15.2876 11.1149L5.87761 11.1149M2.74094 6.40994C2.74094 6.84303 2.38986 7.19411 1.95677 7.19411C1.52369 7.19411 1.17261 6.84303 1.17261 6.40994C1.17261 5.97686 1.52369 5.62578 1.95677 5.62578C2.38986 5.62578 2.74094 5.97686 2.74094 6.40994ZM2.74094 1.70494C2.74094 2.13803 2.38986 2.48911 1.95677 2.48911C1.52369 2.48911 1.17261 2.13803 1.17261 1.70494C1.17261 1.27186 1.52369 0.920776 1.95677 0.920776C2.38986 0.920776 2.74094 1.27186 2.74094 1.70494ZM2.74094 11.1149C2.74094 11.548 2.38986 11.8991 1.95677 11.8991C1.52369 11.8991 1.17261 11.548 1.17261 11.1149C1.17261 10.6819 1.52369 10.3308 1.95677 10.3308C2.38986 10.3308 2.74094 10.6819 2.74094 11.1149Z" stroke="#6D6AFF" stroke-width="1.25" stroke-linecap="round" stroke-linejoin="round"/>
</svg>
