<svg width="110" height="110" viewBox="0 0 110 110" fill="none" xmlns="http://www.w3.org/2000/svg">
<path d="M104.159 66.6282C101.957 73.0344 99.5719 80.1478 97.0031 87.9684C94.4344 95.789 88.8382 100.906 80.2146 103.318C71.5909 105.731 63.0131 106.23 54.4812 104.816C45.9493 103.402 37.3257 101.114 28.6103 97.9522C19.8949 94.7906 13.152 89.3828 8.38146 81.7286C3.61094 74.0744 1.73025 65.921 2.7394 57.2684C3.74855 48.6159 8.51907 42.2928 17.051 38.2993C25.5829 34.3058 31.4084 27.8164 34.5276 18.8311C37.6468 9.8457 43.9769 5.10342 53.518 4.60424C63.059 4.10505 72.8753 4.52104 82.9668 5.8522C93.0583 7.18337 98.2416 13.0072 98.5169 23.3237C98.7921 33.6403 100.352 41.8352 103.196 47.9087C106.04 53.9821 106.361 60.222 104.159 66.6282Z" fill="#DCDCFF"/>
<path fill-rule="evenodd" clip-rule="evenodd" d="M97.0031 87.9684C99.5719 80.1478 101.957 73.0344 104.159 66.6282C104.247 66.3709 104.332 66.1138 104.412 65.8571L6.21533 77.8153C6.85525 79.1339 7.57728 80.4383 8.38143 81.7286C13.152 89.3828 19.8949 94.7906 28.6103 97.9521C37.3257 101.114 45.9493 103.402 54.4812 104.816C56.4126 105.136 58.3463 105.358 60.2824 105.482L81.6619 102.879C89.4673 100.313 94.581 95.3425 97.0031 87.9684Z" fill="#B3B3FB"/>
<g clip-path="url(#clip0_230_53)">
<path d="M77.5 87.9999C88.2696 87.9999 97 83.5867 97 78.1428C97 72.6988 88.2696 68.2856 77.5 68.2856C66.7304 68.2856 58 72.6988 58 78.1428C58 83.5867 66.7304 87.9999 77.5 87.9999Z" fill="#5E80FF"/>
<path d="M97 74.8572H58V78.1429H97V74.8572Z" fill="#5E80FF"/>
<path d="M96.6752 74.8571C96.6752 77.3916 94.6351 79.7715 91.1422 81.5371C87.6677 83.2935 82.845 84.3892 77.5002 84.3892C72.1554 84.3892 67.3327 83.2935 63.8582 81.5371C60.3653 79.7715 58.3252 77.3916 58.3252 74.8571C58.3252 72.3227 60.3653 69.9428 63.8582 68.1771C67.3327 66.4207 72.1554 65.325 77.5002 65.325C82.845 65.325 87.6677 66.4207 91.1422 68.1771C94.6351 69.9428 96.6752 72.3227 96.6752 74.8571Z" fill="white" stroke="#5E80FF" stroke-width="0.65"/>
<path d="M75.4522 77.0516C75.5435 76.9713 75.6607 76.8898 75.8039 76.8069C75.9471 76.7239 76.1043 76.6413 76.2755 76.559C76.0161 76.5319 75.7525 76.4891 75.4845 76.4302C75.2164 76.3713 74.9506 76.2944 74.6869 76.1993C74.4342 76.1056 74.1878 75.9898 73.9485 75.8519C73.7025 75.7161 73.4752 75.5568 73.2667 75.3737C72.9273 75.0757 72.6939 74.7744 72.5662 74.4699C72.4427 74.1688 72.4207 73.8808 72.5005 73.6058C72.5801 73.3308 72.7578 73.0775 73.0331 72.846C73.3151 72.6121 73.6874 72.4176 74.15 72.2621C75.28 71.8823 76.4119 71.817 77.5458 72.0663C78.6904 72.317 79.7799 72.8965 80.8144 73.8048L81.765 74.6394L82.3994 74.4261C82.915 74.2528 83.2171 74.0248 83.3059 73.7417C83.4014 73.4565 83.2529 73.1415 82.8603 72.7969C82.5127 72.4917 82.137 72.3103 81.7331 72.2524C81.3356 72.1924 80.9354 72.2301 80.5323 72.3656L78.8272 70.8687C79.2832 70.7154 79.7773 70.6238 80.3097 70.5937C80.8462 70.5673 81.3883 70.606 81.9361 70.7098C82.4879 70.8172 83.0248 70.9917 83.5467 71.2333C84.0793 71.4762 84.5684 71.7933 85.0141 72.1846C85.4148 72.5364 85.7076 72.8898 85.8924 73.2446C86.0814 73.603 86.1473 73.9458 86.0902 74.2726C86.0332 74.5997 85.8383 74.9059 85.5057 75.1915C85.1795 75.4749 84.7059 75.721 84.0848 75.9297L79.4854 77.4757C78.9105 77.6689 78.4571 77.8486 78.1255 78.0147C77.7937 78.1808 77.5354 78.347 77.3504 78.5135L77.1819 78.5701L75.4522 77.0516ZM75.7598 74.975C75.9316 75.1258 76.124 75.2547 76.3371 75.3617C76.5506 75.4687 76.7694 75.5565 76.9938 75.6251C77.2179 75.6936 77.439 75.7433 77.6571 75.7744C77.8817 75.8031 78.0881 75.8157 78.2759 75.8121L80.1196 75.1924L79.2486 74.4278C78.9829 74.1945 78.7131 74.0097 78.4391 73.8734C78.1716 73.7349 77.9026 73.6392 77.6321 73.5862C77.3682 73.5309 77.1018 73.5137 76.833 73.5346C76.5709 73.5531 76.3177 73.6035 76.0732 73.6857C75.703 73.8101 75.4756 73.9834 75.3905 74.2055C75.3096 74.4314 75.4327 74.6878 75.7598 74.975Z" fill="black"/>
<path d="M75.0493 79.2697L69.1449 74.0859L67.1001 74.7732L73.0045 79.957L75.0493 79.2697Z" fill="#5E80FF"/>
</g>
<path fill-rule="evenodd" clip-rule="evenodd" d="M34.5418 74.3658L59.7236 71.2992C60.2023 70.7133 60.7974 70.1527 61.499 69.6251C70.5196 71.1799 77 75.4616 77 80.5C77 86.8513 66.7025 92 54 92C41.2975 92 31 86.8513 31 80.5C31 78.2447 32.2984 76.1411 34.5418 74.3658Z" fill="black" fill-opacity="0.05"/>
<path d="M54.9138 72.7067C62.038 62.3506 63.5892 51.0857 58.3785 47.5459C53.1679 44.0061 43.1686 49.5318 36.0444 59.8879C28.9203 70.2441 27.3691 81.509 32.5797 85.0488C37.7904 88.5886 47.7897 83.0629 54.9138 72.7067Z" fill="url(#paint0_linear_230_53)"/>
<path d="M55.2334 45.4094L29.4346 82.9124L32.5795 85.0488L58.3783 47.5459L55.2334 45.4094Z" fill="url(#paint1_linear_230_53)"/>
<path d="M55.0184 45.7219C57.4404 47.3673 58.37 50.8737 57.7492 55.3823C57.1318 59.8659 54.9902 65.2165 51.4542 70.3566C47.9183 75.4967 43.6788 79.4221 39.699 81.6214C35.6968 83.833 32.0716 84.2452 29.6496 82.5997C27.2276 80.9544 26.298 77.448 26.9189 72.9393C27.5363 68.4558 29.6779 63.1051 33.2139 57.9651C36.7498 52.825 40.9892 48.8996 44.9691 46.7003C48.9712 44.4887 52.5964 44.0765 55.0184 45.7219Z" fill="white" stroke="black"/>
<path d="M32.1904 64.1433L34.3973 65.6427L36.1142 64.1079L37.2583 60.2833L32.1904 64.1433Z" fill="black"/>
<path d="M39.7573 65.6328L42.4387 56.4999L39.9367 58.5517L37.167 67.5246L38.8378 68.6597L39.7573 65.6328Z" fill="black"/>
<path fill-rule="evenodd" clip-rule="evenodd" d="M42.1461 70.9073C43.9732 72.1487 46.9946 70.9164 48.8945 68.1548C50.7944 65.3933 50.8534 62.1483 49.0263 60.9069C47.1992 59.6656 44.1778 60.8979 42.2779 63.6594C40.378 66.4209 40.319 69.666 42.1461 70.9073ZM43.4964 68.9446C44.6064 69.6987 46.4418 68.9502 47.5959 67.2726C48.7501 65.595 48.7859 63.6237 47.6759 62.8696C46.5661 62.1155 44.7307 62.8641 43.5765 64.5417C42.4223 66.2192 42.3866 68.1905 43.4964 68.9446Z" fill="black"/>
<g clip-path="url(#clip1_230_53)">
<path d="M80.0214 43.202C84.6424 41.9638 87.3847 37.214 86.1465 32.593C84.9083 27.972 80.1585 25.2297 75.5375 26.4679C70.9165 27.7061 68.1742 32.4559 69.4124 37.0769C70.6505 41.6979 75.4004 44.4402 80.0214 43.202Z" fill="#F5AC37"/>
<path d="M78.2993 35.3416L81.5429 34.4725C81.612 34.454 81.6447 34.4452 81.6254 34.3533C81.5635 34.0162 81.4745 33.6843 81.3595 33.3611C81.3423 33.2969 81.3034 33.2789 81.2338 33.2976L74.7786 35.0272C74.6987 35.0487 74.6843 35.0809 74.7044 35.1558L74.9588 36.1054C74.9917 36.2279 74.9917 36.2279 75.1196 36.1936L78.2993 35.3416ZM80.6757 32.2577C80.6784 32.2311 80.6713 32.2046 80.6557 32.1832C80.5699 32.0798 80.4756 31.9844 80.3728 31.8988C80.2123 31.7483 80.0356 31.6174 79.8449 31.5083C79.7497 31.4371 79.6458 31.378 79.5352 31.334C78.9681 31.0647 78.3447 30.9337 77.7172 30.952C77.4016 30.9649 77.0889 31.0146 76.7846 31.099L73.9198 31.8666C73.8399 31.888 73.8377 31.9228 73.8563 31.9923L74.3637 33.886C74.3851 33.9659 74.3909 33.9874 74.4923 33.9603L80.6487 32.3107C80.6487 32.3107 80.6992 32.2856 80.7014 32.2508L80.6753 32.2578L80.6757 32.2577ZM81.5848 35.6507C81.4915 35.665 81.4 35.6895 81.3121 35.7238L75.3958 37.309C75.3159 37.3304 75.289 37.3376 75.3176 37.4444L75.8137 39.2959C75.8366 39.3812 75.8423 39.4027 75.9491 39.3741L78.6806 38.6422C78.8139 38.6172 78.942 38.573 79.0626 38.5114C79.4514 38.3768 79.8183 38.1863 80.1521 37.9449C80.2748 37.8618 80.389 37.7657 80.4927 37.6593L80.5299 37.6493C81.081 37.1447 81.4609 36.4822 81.6169 35.752C81.6169 35.752 81.6325 35.6614 81.585 35.6515L81.5848 35.6507ZM75.0275 40.6499L75.0189 40.618L74.6859 39.375L74.5729 38.9536L74.237 37.6998C74.2184 37.6303 74.2156 37.6199 74.1303 37.6428L72.9726 37.953C72.9084 37.9702 72.8819 37.9773 72.8591 37.892L72.5874 36.8783L73.8251 36.5467C73.8942 36.5281 73.9211 36.5209 73.8968 36.4303L73.6281 35.4273C73.6109 35.3632 73.6067 35.3474 73.5214 35.3703L72.3637 35.6805C72.2995 35.6977 72.273 35.7048 72.2501 35.6195L71.9986 34.6807C71.9829 34.622 71.9786 34.6062 72.0639 34.5834L73.2109 34.276C73.2908 34.2546 73.3123 34.2488 73.2851 34.1474L72.5146 31.2719C72.4918 31.1866 72.486 31.1651 72.5928 31.1365L76.5938 30.0644C76.8873 29.9981 77.1843 29.9527 77.4839 29.9289C78.1011 29.88 78.7224 29.9387 79.3194 30.1003C79.7161 30.2101 80.0967 30.3692 80.4527 30.5743C80.7227 30.7371 80.9768 30.9234 81.2136 31.1309C81.4501 31.3421 81.6629 31.5786 81.8491 31.8354C81.8825 31.9064 81.9674 31.9375 82.0385 31.9049L82.9935 31.649C83.116 31.6162 83.116 31.6162 83.1529 31.7323L83.3873 32.6073C83.4102 32.6926 83.3841 32.7227 83.2984 32.7456L82.5621 32.9429C82.4875 32.9629 82.466 32.9686 82.4971 33.0632C82.6134 33.3804 82.7008 33.7065 82.7587 34.0393C82.783 34.1299 82.7858 34.1407 82.8876 34.1134L83.73 33.8877C83.7801 33.9257 83.7557 33.9837 83.7687 34.0321C83.7907 34.0925 83.8074 34.1552 83.8186 34.2184L83.9917 34.8642C84.0159 34.9548 83.9966 34.9888 83.9164 35.0103L82.908 35.2805C82.8341 35.2859 82.7778 35.3491 82.7804 35.4234C82.7076 36.1119 82.4734 36.7745 82.0974 37.3561C81.9598 37.568 81.8104 37.7727 81.6494 37.9677C81.4688 38.1479 81.2953 38.3315 81.1035 38.4915C80.7491 38.7808 80.3624 39.0277 79.9515 39.2288C79.5595 39.4129 79.1509 39.5582 78.7302 39.6647L75.0277 40.6568L75.0262 40.6515L75.0275 40.6499Z" fill="#FEFEFD"/>
</g>
<defs>
<linearGradient id="paint0_linear_230_53" x1="32.5797" y1="85.0488" x2="58.1586" y2="47.3964" gradientUnits="userSpaceOnUse">
<stop stop-color="#0C0C0C"/>
<stop offset="1" stop-color="#0F0F0F"/>
</linearGradient>
<linearGradient id="paint1_linear_230_53" x1="31.007" y1="83.9806" x2="56.5859" y2="46.3282" gradientUnits="userSpaceOnUse">
<stop stop-color="#0C0C0C"/>
<stop offset="1" stop-color="#0F0F0F"/>
</linearGradient>
<clipPath id="clip0_230_53">
<rect width="39" height="23" fill="white" transform="translate(58 65)"/>
</clipPath>
<clipPath id="clip1_230_53">
<rect width="17.6742" height="17.6742" fill="white" transform="translate(67 28.5745) rotate(-15)"/>
</clipPath>
</defs>
</svg>
