<svg width="22" height="22" viewBox="0 0 22 22" fill="none" xmlns="http://www.w3.org/2000/svg">
<path d="M8.24992 8.24992H8.25909M13.7499 13.7499H13.7591M14.6666 7.33325L7.33325 14.6666M6.72254 3.50039C7.45939 3.44159 8.15891 3.15184 8.72151 2.67239C10.0344 1.55354 11.9654 1.55354 13.2783 2.67239C13.8409 3.15184 14.5404 3.44159 15.2773 3.50039C16.9968 3.63761 18.3622 5.00303 18.4994 6.72254C18.5582 7.45939 18.848 8.15891 19.3275 8.72151C20.4463 10.0344 20.4463 11.9654 19.3275 13.2783C18.848 13.8409 18.5582 14.5404 18.4994 15.2773C18.3622 16.9968 16.9968 18.3622 15.2773 18.4994C14.5404 18.5582 13.8409 18.848 13.2783 19.3275C11.9654 20.4463 10.0344 20.4463 8.72151 19.3275C8.15891 18.848 7.45939 18.5582 6.72254 18.4994C5.00303 18.3622 3.63761 16.9968 3.50039 15.2773C3.44159 14.5404 3.15184 13.8409 2.67239 13.2783C1.55354 11.9654 1.55354 10.0344 2.67239 8.72151C3.15184 8.15891 3.44159 7.45939 3.50039 6.72254C3.63761 5.00303 5.00303 3.63761 6.72254 3.50039ZM8.70825 8.24992C8.70825 8.50305 8.50305 8.70825 8.24992 8.70825C7.99679 8.70825 7.79159 8.50305 7.79159 8.24992C7.79159 7.99679 7.99679 7.79159 8.24992 7.79159C8.50305 7.79159 8.70825 7.99679 8.70825 8.24992ZM14.2083 13.7499C14.2083 14.003 14.003 14.2083 13.7499 14.2083C13.4968 14.2083 13.2916 14.003 13.2916 13.7499C13.2916 13.4968 13.4968 13.2916 13.7499 13.2916C14.003 13.2916 14.2083 13.4968 14.2083 13.7499Z" stroke="black" stroke-width="1.8" stroke-linecap="round" stroke-linejoin="round"/>
</svg>
