<svg width="207" height="207" viewBox="0 0 207 207" fill="none" xmlns="http://www.w3.org/2000/svg">
<path d="M129.375 86.25L163.875 120.75L198.375 86.25" stroke="#6D6AFF" stroke-width="17.25"/>
<path d="M73.3125 51.2137C82.4907 45.9147 92.902 43.125 103.5 43.125C114.098 43.125 124.509 45.9147 133.688 51.2137C142.866 56.5127 150.487 64.1343 155.786 73.3125C161.085 82.4907 163.875 92.902 163.875 103.5" stroke="#6D6AFF" stroke-width="17.25" stroke-linecap="round"/>
<path d="M77.625 120.75L43.125 86.25L8.625 120.75" stroke="#6D6AFF" stroke-width="17.25"/>
<path d="M133.687 155.786C124.509 161.085 114.098 163.875 103.5 163.875C92.902 163.875 82.4907 161.085 73.3125 155.786C64.1343 150.487 56.5127 142.866 51.2137 133.687C45.9147 124.509 43.125 114.098 43.125 103.5" stroke="#6D6AFF" stroke-width="17.25" stroke-linecap="round"/>
</svg>
