<svg width="500" height="500" viewBox="0 0 500 500" fill="none" xmlns="http://www.w3.org/2000/svg">
<circle cx="250" cy="250" r="250" fill="#F5F5FE"/>
<mask id="mask0_73_30" style="mask-type:alpha" maskUnits="userSpaceOnUse" x="0" y="0" width="500" height="500">
<circle cx="250" cy="250" r="250" fill="#F5F5FE"/>
</mask>
<g mask="url(#mask0_73_30)">
<path fill-rule="evenodd" clip-rule="evenodd" d="M153.26 221.909C153.26 167.835 197.096 124 251.17 124C305.243 124 349.079 167.835 349.079 221.909C349.079 275.983 305.243 319.819 251.17 319.819C197.096 319.819 153.26 275.983 153.26 221.909Z" fill="#4844EC"/>
<path fill-rule="evenodd" clip-rule="evenodd" d="M143.974 367.182C170.49 356.066 205.859 352.455 251.169 352.455C296.387 352.455 331.702 356.051 358.194 367.11C386.63 378.98 404.084 399.146 413.389 428.476C416.845 439.377 424.691 581.5 413.389 581.5H251.169H88.916C72.9618 655.636 85.4873 439.426 88.9159 428.586C98.1923 399.257 115.585 379.083 143.974 367.182Z" fill="#4844EC"/>
</g>
</svg>
