<svg width="9" height="9" viewBox="0 0 9 9" fill="none" xmlns="http://www.w3.org/2000/svg">
<g clip-path="url(#clip0_38_105)">
<path d="M6.1875 5.25H6.19125M1.125 1.875V7.125C1.125 7.53921 1.46079 7.875 1.875 7.875H7.125C7.53921 7.875 7.875 7.53921 7.875 7.125V3.375C7.875 2.96079 7.53921 2.625 7.125 2.625L1.875 2.625C1.46079 2.625 1.125 2.28921 1.125 1.875ZM1.125 1.875C1.125 1.46079 1.46079 1.125 1.875 1.125H6.375M6.375 5.25C6.375 5.35355 6.29105 5.4375 6.1875 5.4375C6.08395 5.4375 6 5.35355 6 5.25C6 5.14645 6.08395 5.0625 6.1875 5.0625C6.29105 5.0625 6.375 5.14645 6.375 5.25Z" stroke="#B3B3FB" stroke-linecap="round" stroke-linejoin="round"/>
</g>
<defs>
<clipPath id="clip0_38_105">
<rect width="9" height="9" fill="white"/>
</clipPath>
</defs>
</svg>
