<svg width="199" height="99" viewBox="0 0 199 99" fill="none" xmlns="http://www.w3.org/2000/svg">
<path d="M0 98.8302H32.9634L39.6906 80.6392L24.5544 49.646L0 98.8302Z" fill="white"/>
<path d="M87.4519 74.2386L50.7884 0.462036L39.6885 25.728L74.3337 98.8306H99.2905L87.4519 74.2386Z" fill="white"/>
<path fill-rule="evenodd" clip-rule="evenodd" d="M148.712 98.8303C176.003 98.8303 198.127 76.7066 198.127 49.4153C198.127 22.124 176.003 0 148.712 0C121.421 0 99.2969 22.124 99.2969 49.4153C99.2969 76.7066 121.421 98.8303 148.712 98.8303ZM148.712 79.4341C165.291 79.4341 178.73 65.9941 178.73 49.4153C178.73 32.8365 165.291 19.3966 148.712 19.3966C132.133 19.3966 118.693 32.8365 118.693 49.4153C118.693 65.9941 132.133 79.4341 148.712 79.4341Z" fill="white"/>
</svg>
