<svg width="68" height="39" viewBox="0 0 68 39" fill="none" xmlns="http://www.w3.org/2000/svg">
<path d="M7.76953 37.6902V31.5616C7.76953 18.5491 17.7728 7.57593 30.1123 7.57593C42.452 7.57593 52.4552 18.5491 52.4552 31.5616V37.6902" stroke="#ECECEC" stroke-width="12.0457"/>
<path d="M30.8905 13.3467C22.1535 13.3467 14.3179 21.3043 14.3179 31.5622V37.4381H2.77734V31.5622C2.77734 15.7919 14.9512 1.80615 30.8905 1.80615C46.8297 1.80615 59.0036 15.7919 59.0036 31.5622V37.4381H47.4631V31.5622C47.4631 21.3043 39.6275 13.3467 30.8905 13.3467Z" fill="white" stroke="#222326" stroke-width="0.505143"/>
<path d="M19.0356 37.6911V31.6891C19.0356 19.0295 28.343 8.354 39.8243 8.354C51.3054 8.354 60.6127 19.0295 60.6127 31.6891V37.6911" stroke="#222326" stroke-width="13.2114"/>
</svg>
