<svg width="81" height="74" viewBox="0 0 81 74" fill="none" xmlns="http://www.w3.org/2000/svg">
<path d="M28.5381 19.6741C30.1666 16.9184 32.5216 14.6636 35.1267 12.7848C40.062 9.27756 46.4506 7.52367 52.5136 8.42587C56.0961 8.927 59.6034 10.3051 62.4847 12.3343L62.3848 12.5595C57.5247 11.332 52.7893 10.5551 47.9039 11.1567C42.3922 11.7832 37.1564 14.0881 32.4963 17.1191C31.2189 17.9459 29.9661 18.8476 28.7386 19.7999L28.5381 19.6741Z" fill="#383D43"/>
<path d="M30.5176 11.0061C33.4237 5.09378 39.6619 1.18542 46.1006 0.233186C49.3573 -0.217916 52.6892 -0.0173586 55.8712 0.859595C59.0026 1.68652 61.9588 3.03932 64.5644 4.86797L64.4642 5.09324C59.4537 3.81573 54.6437 2.7635 49.5578 2.93877C42.4928 3.18933 35.8787 6.22076 30.7181 11.1561C30.7434 11.1314 30.5176 11.0061 30.5176 11.0061Z" fill="#959DAC"/>
<path d="M19.6196 37.9636C18.2168 35.1327 17.5404 31.976 17.2898 28.8444C16.6387 21.2536 19.2691 13.1616 25.1812 8.17622C26.6847 6.8987 28.388 5.82119 30.1919 5.01953L30.3424 5.22007C23.4274 11.8336 20.1955 19.3238 19.7447 28.7939C19.5695 31.7754 19.6448 34.7815 19.8954 37.863L19.6196 37.9636Z" fill="#383D43"/>
<path d="M13.2062 32.1248C11.4776 29.5192 10.6507 26.4377 10.4001 23.3311C9.87426 17.0676 12.304 10.6043 16.5383 5.99472C18.6174 3.68972 21.0478 1.73581 23.7534 0.333008L23.9038 0.533565C21.9247 2.83857 20.0456 5.09305 18.4174 7.49807C13.4068 14.6379 11.6029 23.4568 13.4321 32.0246C13.4315 31.9995 13.2062 32.1248 13.2062 32.1248Z" fill="#959DAC"/>
<path d="M47.3784 19.7989C50.5351 19.4984 53.7165 20.0242 56.7232 20.9011C64.0388 23.0309 70.6521 28.3921 73.1578 35.7072C73.8089 37.561 74.2099 39.5403 74.3101 41.5194L74.0595 41.5946C70.377 32.751 64.5392 27.0639 55.871 23.2308C53.1401 22.0033 50.3092 20.9763 47.353 20.0994L47.3784 19.7989Z" fill="#383D43"/>
<path d="M55.1454 15.9151C58.2015 15.2387 61.3582 15.5893 64.3649 16.4664C70.4026 18.2202 75.5637 22.8297 78.3192 28.4414C79.722 31.2222 80.6742 34.1784 81 37.2098L80.7496 37.2852C79.3214 34.6042 77.8934 32.0492 76.2148 29.6689C71.3547 22.4287 63.7885 17.5686 55.1206 16.1905C55.1701 16.1657 55.1454 15.9151 55.1454 15.9151Z" fill="#959DAC"/>
<path d="M59.679 35.3574C61.207 38.1129 62.034 41.2449 62.4097 44.3511C63.4121 51.9173 61.1571 60.1093 55.47 65.3451C54.0166 66.6979 52.3634 67.8502 50.6099 68.7271L50.4595 68.5266C57.0734 61.6122 59.9542 53.9711 59.9795 44.5012C60.0296 41.5196 59.8043 38.5136 59.4284 35.4568L59.679 35.3574Z" fill="#383D43"/>
<path d="M66.3685 40.8936C68.2223 43.4239 69.1747 46.4554 69.5751 49.562C70.3768 55.8002 68.2471 62.3642 64.2388 67.1489C62.2595 69.5539 59.9298 71.6085 57.2989 73.1364L57.1484 72.9359C59.0276 70.5308 60.8062 68.2012 62.309 65.7208C66.9937 58.3551 68.3966 49.4614 66.1674 40.9937C66.1431 41.0442 66.3685 40.8936 66.3685 40.8936Z" fill="#959DAC"/>
<path d="M52.9652 49.336C51.6877 52.2423 49.7085 54.7725 47.4786 56.9771C42.0675 62.3635 34.1756 65.545 26.5599 64.2173C24.6059 63.8915 22.7016 63.2652 20.9229 62.4134L20.9729 62.163C30.4929 63.2151 38.3092 60.8854 45.8501 55.1484C48.2552 53.3699 50.5101 51.3906 52.7146 49.2109L52.9652 49.336Z" fill="#383D43"/>
<path d="M52.6146 58.0042C51.7377 61.0103 49.909 63.6159 47.6793 65.7955C43.2199 70.2298 36.7064 72.5096 30.443 72.2342C27.3364 72.1089 24.2803 71.5079 21.4741 70.3304L21.524 70.0797C24.5554 70.1051 27.4863 70.1051 30.3926 69.804C39.0856 69.0524 47.0024 64.7686 52.3888 57.8789C52.364 57.9288 52.6146 58.0042 52.6146 58.0042Z" fill="#959DAC"/>
<path d="M30.3426 54.5455C27.1859 54.3202 24.1297 53.2927 21.2983 51.9153C14.4338 48.6333 8.79678 42.245 7.494 34.6289C7.14344 32.6749 7.09343 30.6705 7.31871 28.7167L7.56927 28.6914C9.74901 38.0109 14.5838 44.5997 22.5006 49.7859C24.9807 51.4394 27.6111 52.9175 30.3919 54.2456L30.3426 54.5455Z" fill="#383D43"/>
<path d="M22.0748 57.1277C18.9434 57.3029 15.8867 56.4513 13.0811 55.0732C7.41939 52.3422 3.0852 46.9812 1.25602 40.9936C0.329075 38.0374 -0.122047 34.9559 0.0285049 31.8994L0.279068 31.874C1.25602 34.7548 2.25825 37.511 3.48576 40.1414C7.09357 48.0828 13.7823 54.1208 22.1001 56.8765C22.0748 56.8777 22.0748 57.1277 22.0748 57.1277Z" fill="#959DAC"/>
</svg>
