<svg width="20" height="20" viewBox="0 0 20 20" fill="none" xmlns="http://www.w3.org/2000/svg">
<g clip-path="url(#clip0_60_912)">
<path d="M20 10C20 4.47715 15.5228 0 10 0C4.47715 0 0 4.47715 0 10C0 15.5228 4.47715 20 10 20C15.5228 20 20 15.5228 20 10Z" fill="black"/>
<path d="M4.60278 12.6923H6.39874L6.76528 11.7012L5.94059 10.0126L4.60278 12.6923Z" fill="white"/>
<path d="M9.36757 11.3524L7.36999 7.33286L6.76526 8.70943L8.65284 12.6923H10.0126L9.36757 11.3524Z" fill="white"/>
<path fill-rule="evenodd" clip-rule="evenodd" d="M12.7049 12.6923C14.1918 12.6923 15.3972 11.4869 15.3972 9.99999C15.3972 8.51306 14.1918 7.30768 12.7049 7.30768C11.218 7.30768 10.0126 8.51306 10.0126 9.99999C10.0126 11.4869 11.218 12.6923 12.7049 12.6923ZM12.7049 11.6355C13.6082 11.6355 14.3404 10.9033 14.3404 9.99999C14.3404 9.09672 13.6082 8.36449 12.7049 8.36449C11.8016 8.36449 11.0693 9.09672 11.0693 9.99999C11.0693 10.9033 11.8016 11.6355 12.7049 11.6355Z" fill="white"/>
</g>
<defs>
<clipPath id="clip0_60_912">
<rect width="20" height="20" fill="white"/>
</clipPath>
</defs>
</svg>
