<svg width="26" height="26" viewBox="0 0 26 26" fill="none" xmlns="http://www.w3.org/2000/svg">
<path d="M13 25C19.6274 25 25 19.6274 25 13C25 6.37258 19.6274 1 13 1C6.37258 1 1 6.37258 1 13C1 19.6274 6.37258 25 13 25Z" fill="white" stroke="#222326" stroke-width="2"/>
<path d="M15.2406 17.3357C15.1824 17.2192 15.1328 17.0851 15.0921 16.9337C15.0513 16.7821 15.0163 16.6219 14.9872 16.4529C14.8531 16.5985 14.6987 16.7355 14.5239 16.8637C14.349 16.9919 14.1539 17.1056 13.9382 17.2046C13.7285 17.2978 13.4953 17.3707 13.2389 17.4231C12.9826 17.4814 12.7058 17.5106 12.4086 17.5106C11.9249 17.5106 11.4791 17.4406 11.0712 17.3008C10.6691 17.1609 10.3224 16.9657 10.031 16.7152C9.73961 16.4646 9.51236 16.1674 9.34918 15.8236C9.186 15.4739 9.10449 15.0952 9.10449 14.6872C9.10449 13.6907 9.47447 12.9215 10.2146 12.3796C10.9605 11.8318 12.0706 11.5579 13.5449 11.5579H14.8998V10.9985C14.8998 10.5439 14.7512 10.1856 14.4539 9.92337C14.1568 9.65528 13.7285 9.52123 13.1691 9.52123C12.6737 9.52123 12.3124 9.62909 12.0852 9.84464C11.8579 10.0545 11.7442 10.3371 11.7442 10.6925H9.31423C9.31423 10.2905 9.40163 9.9088 9.57643 9.5475C9.75712 9.1862 10.0165 8.8686 10.3544 8.5947C10.6982 8.3208 11.1149 8.10525 11.6044 7.94788C12.0997 7.78471 12.665 7.70312 13.3002 7.70312C13.8712 7.70312 14.4015 7.77305 14.891 7.91291C15.3864 8.05276 15.8146 8.25967 16.1759 8.53349C16.5372 8.80739 16.8199 9.15412 17.0238 9.57369C17.2278 9.98744 17.3298 10.4682 17.3298 11.0159V15.0718C17.3298 15.5788 17.3618 15.9984 17.4259 16.3305C17.49 16.6627 17.5832 16.9482 17.7056 17.1871V17.3357H15.2406ZM12.9243 15.6313C13.1691 15.6313 13.3963 15.6021 13.6061 15.5439C13.8159 15.4855 14.0052 15.4098 14.1742 15.3165C14.3432 15.2233 14.4889 15.1184 14.6113 15.0019C14.7337 14.8795 14.8298 14.7571 14.8998 14.6348V13.0089H13.6585C13.2798 13.0089 12.9564 13.0468 12.6883 13.1225C12.4202 13.1925 12.2017 13.2945 12.0327 13.4285C11.8637 13.5567 11.7384 13.714 11.6568 13.9005C11.5752 14.0811 11.5345 14.2793 11.5345 14.4949C11.5345 14.8213 11.6481 15.0922 11.8753 15.3078C12.1085 15.5234 12.4581 15.6313 12.9243 15.6313Z" fill="#222326"/>
</svg>
