<svg width="209" height="209" viewBox="0 0 209 209" fill="none" xmlns="http://www.w3.org/2000/svg">
<path fill-rule="evenodd" clip-rule="evenodd" d="M104.338 167.45C69.4822 167.45 41.2261 139.194 41.2261 104.338C41.2261 69.4822 69.4822 41.2261 104.338 41.2261C139.194 41.2261 167.45 69.4822 167.45 104.338C167.45 139.194 139.194 167.45 104.338 167.45Z" fill="white"/>
<path fill-rule="evenodd" clip-rule="evenodd" d="M0.0258105 104.338C0.025808 161.948 46.7279 208.65 104.338 208.65C161.948 208.65 208.65 161.948 208.65 104.338C208.65 46.728 161.948 0.0258769 104.338 0.0258743C46.7279 0.0258718 0.025813 46.728 0.0258105 104.338Z" fill="url(#paint0_radial_3_48)"/>
<path fill-rule="evenodd" clip-rule="evenodd" d="M8.14144 144.709C26.0007 187.415 70.2136 213.262 116.097 207.999C101.792 198.058 31.5666 127.163 98.1277 96.6245C170.951 63.2132 166.399 24.8374 149.014 10.0751C127.427 -0.168817 102.228 -3.08861 77.34 3.58023C57.2243 8.97022 40.0649 19.8861 27.0574 34.257C14.6366 48.2947 5.9814 65.395 2.1366 83.3465C-0.233773 94.8415 -0.68376 106.868 1.04746 118.976C1.64542 122.737 2.47999 126.472 3.56051 130.162C4.69973 135.191 6.24463 140.047 8.14144 144.709Z" fill="url(#paint1_linear_3_48)"/>
<path fill-rule="evenodd" clip-rule="evenodd" d="M147.996 9.59888C163.381 20.0038 201.307 50.7506 136.617 87.8522C65.7443 128.5 125.078 191.493 164.844 189.344C199.306 164.807 216.688 120.605 205.096 77.3404C196.749 46.1915 175.153 22.1313 147.996 9.59888Z" fill="url(#paint2_linear_3_48)"/>
<path d="M103.955 166.453C138.12 166.453 165.816 138.757 165.816 104.592C165.816 70.4275 138.12 42.7315 103.955 42.7315C69.7903 42.7315 42.0941 70.4275 42.0941 104.592C42.0941 138.757 69.7903 166.453 103.955 166.453Z" fill="#F5AC37"/>
<path d="M106.604 109.048H130.585C131.096 109.048 131.337 109.048 131.374 108.378C131.57 105.939 131.57 103.485 131.374 101.042C131.374 100.568 131.138 100.372 130.624 100.372H82.8985C82.3078 100.372 82.1487 100.568 82.1487 101.122V108.142C82.1487 109.048 82.1487 109.048 83.0944 109.048H106.604ZM128.696 92.1676C128.764 91.9886 128.764 91.7927 128.696 91.6166C128.296 90.7447 127.821 89.9126 127.27 89.1316C126.441 87.7968 125.464 86.5671 124.351 85.4624C123.825 84.795 123.218 84.1957 122.536 83.6874C119.122 80.7821 115.064 78.7259 110.702 77.6922C108.501 77.198 106.252 76.9623 103.997 76.9822H82.8161C82.2254 76.9822 82.1459 77.2179 82.1459 77.7319V91.733C82.1459 92.3238 82.1459 92.4828 82.8956 92.4828H128.412C128.412 92.4828 128.807 92.4033 128.886 92.1676H128.693H128.696ZM128.696 117.253C128.026 117.179 127.35 117.179 126.68 117.253H82.9382C82.3475 117.253 82.1487 117.253 82.1487 118.043V131.731C82.1487 132.362 82.1487 132.521 82.9382 132.521H103.133C104.099 132.595 105.065 132.526 106.01 132.325C108.941 132.115 111.824 131.479 114.573 130.431C115.572 130.084 116.538 129.633 117.45 129.09H117.725C122.459 126.628 126.305 122.76 128.73 118.011C128.73 118.011 129.006 117.415 128.696 117.259V117.253ZM74.2223 139.618V139.382V130.192V127.077V117.807C74.2223 117.293 74.2223 117.216 73.5919 117.216H65.0322C64.5579 117.216 64.3619 117.216 64.3619 116.586V109.091H73.5123C74.0235 109.091 74.2223 109.091 74.2223 108.421V101.006C74.2223 100.531 74.2223 100.415 73.5919 100.415H65.0322C64.5579 100.415 64.3619 100.415 64.3619 99.7844V92.8435C64.3619 92.409 64.3619 92.2925 64.9924 92.2925H73.4726C74.0633 92.2925 74.2223 92.2925 74.2223 91.5428V70.2827C74.2223 69.6522 74.2223 69.4932 75.0119 69.4932H104.593C106.74 69.5784 108.873 69.8141 110.983 70.2032C115.331 71.0069 119.509 72.5603 123.328 74.7784C125.862 76.2694 128.193 78.0699 130.269 80.1431C131.831 81.7647 133.24 83.5198 134.49 85.3885C135.731 87.2828 136.762 89.3077 137.571 91.4235C137.67 91.9744 138.199 92.3465 138.749 92.2528H145.81C146.716 92.2528 146.716 92.2528 146.755 93.1218V99.5913C146.755 100.222 146.52 100.381 145.886 100.381H140.442C139.891 100.381 139.732 100.381 139.772 101.091C139.988 103.493 139.988 105.905 139.772 108.307C139.772 108.977 139.772 109.057 140.524 109.057H146.753C147.028 109.412 146.753 109.767 146.753 110.125C146.792 110.582 146.792 111.045 146.753 111.502V116.276C146.753 116.946 146.557 117.145 145.963 117.145H138.508C137.988 117.046 137.483 117.378 137.364 117.895C135.589 122.51 132.749 126.648 129.079 129.965C127.739 131.172 126.33 132.308 124.859 133.356C123.28 134.265 121.744 135.21 120.125 135.96C117.146 137.3 114.022 138.289 110.815 138.916C107.771 139.462 104.684 139.709 101.586 139.666H74.211V139.626L74.2223 139.618Z" fill="#FEFEFD"/>
<path fill-rule="evenodd" clip-rule="evenodd" d="M148.419 61.5761C147.569 62.6188 146.666 63.6663 145.706 64.7176C136.092 75.2562 120.891 86.182 98.1336 96.623C64.7585 111.936 65.7745 137.395 76.8875 160.228C76.8875 160.228 76.8875 160.228 76.8875 160.228C56.291 150.187 42.1 129.046 42.1 104.591C42.1 70.426 69.7962 42.73 103.961 42.73C121.411 42.73 137.173 49.9547 148.419 61.5761Z" fill="url(#paint3_linear_3_48)" fill-opacity="0.15"/>
<path fill-rule="evenodd" clip-rule="evenodd" d="M156.213 74.3474C156.602 74.0134 156.983 73.68 157.357 73.3474C162.734 82.517 165.816 93.1947 165.816 104.592C165.816 134.49 144.607 159.433 116.413 165.198C98.3155 143.627 94.7809 111.846 136.617 87.8522" fill="url(#paint4_linear_3_48)" fill-opacity="0.2"/>
<defs>
<radialGradient id="paint0_radial_3_48" cx="0" cy="0" r="1" gradientUnits="userSpaceOnUse" gradientTransform="translate(104.338 104.338) rotate(-29.6192) scale(135.925 130.152)">
<stop offset="0.5" stop-color="#B8B8FF"/>
<stop offset="1" stop-color="#DCDCFF"/>
</radialGradient>
<linearGradient id="paint1_linear_3_48" x1="79.895" y1="265.291" x2="79.895" y2="0" gradientUnits="userSpaceOnUse">
<stop stop-color="#4844EC"/>
<stop offset="1" stop-color="#766AFF"/>
</linearGradient>
<linearGradient id="paint2_linear_3_48" x1="267.473" y1="120.937" x2="44.7973" y2="120.937" gradientUnits="userSpaceOnUse">
<stop stop-color="#4844EC"/>
<stop offset="1" stop-color="#766AFF"/>
</linearGradient>
<linearGradient id="paint3_linear_3_48" x1="79.9008" y1="265.29" x2="79.9008" y2="-0.00146024" gradientUnits="userSpaceOnUse">
<stop stop-color="#4844EC"/>
<stop offset="1" stop-color="#766AFF"/>
</linearGradient>
<linearGradient id="paint4_linear_3_48" x1="267.473" y1="120.937" x2="44.7973" y2="120.937" gradientUnits="userSpaceOnUse">
<stop stop-color="#4844EC"/>
<stop offset="1" stop-color="#766AFF"/>
</linearGradient>
</defs>
</svg>
