<svg width="209" height="209" viewBox="0 0 209 209" fill="none" xmlns="http://www.w3.org/2000/svg">
<path fill-rule="evenodd" clip-rule="evenodd" d="M104.338 167.45C69.4822 167.45 41.2261 139.194 41.2261 104.338C41.2261 69.4822 69.4822 41.2261 104.338 41.2261C139.194 41.2261 167.45 69.4822 167.45 104.338C167.45 139.194 139.194 167.45 104.338 167.45Z" fill="white"/>
<path fill-rule="evenodd" clip-rule="evenodd" d="M0.0258133 104.338C0.0258108 161.948 46.7279 208.65 104.338 208.65C161.948 208.65 208.65 161.948 208.65 104.338C208.65 46.728 161.948 0.0258769 104.338 0.0258743C46.7279 0.0258718 0.0258158 46.728 0.0258133 104.338Z" fill="url(#paint0_radial_1_31)"/>
<path fill-rule="evenodd" clip-rule="evenodd" d="M8.14144 144.709C26.0007 187.415 70.2136 213.262 116.097 207.999C101.792 198.058 31.5666 127.163 98.1277 96.6245C170.951 63.2132 166.399 24.8374 149.014 10.0751C127.427 -0.168817 102.228 -3.08861 77.34 3.58023C57.2243 8.97022 40.0649 19.8861 27.0574 34.257C14.6366 48.2947 5.9814 65.395 2.1366 83.3465C-0.233773 94.8415 -0.68376 106.868 1.04746 118.976C1.64542 122.737 2.47999 126.472 3.56051 130.162C4.69973 135.191 6.24463 140.047 8.14144 144.709Z" fill="url(#paint1_linear_1_31)"/>
<path fill-rule="evenodd" clip-rule="evenodd" d="M147.996 9.59888C163.381 20.0038 201.307 50.7506 136.617 87.8522C65.7443 128.5 125.078 191.493 164.844 189.344C199.306 164.807 216.688 120.605 205.096 77.3404C196.749 46.1915 175.153 22.1313 147.996 9.59888Z" fill="url(#paint2_linear_1_31)"/>
<path d="M103.955 166.453C138.12 166.453 165.816 138.757 165.816 104.592C165.816 70.4275 138.12 42.7315 103.955 42.7315C69.7903 42.7315 42.0941 70.4275 42.0941 104.592C42.0941 138.757 69.7903 166.453 103.955 166.453Z" fill="white"/>
<path fill-rule="evenodd" clip-rule="evenodd" d="M103.955 52.4496C75.1576 52.4496 51.8124 75.7948 51.8124 104.592C51.8124 133.39 75.1576 156.735 103.955 156.735C132.753 156.735 156.098 133.39 156.098 104.592C156.098 75.7948 132.753 52.4496 103.955 52.4496ZM42.0942 104.592C42.0942 70.4276 69.7903 42.7314 103.955 42.7314C138.12 42.7314 165.816 70.4276 165.816 104.592C165.816 138.757 138.12 166.453 103.955 166.453C69.7903 166.453 42.0942 138.757 42.0942 104.592Z" fill="#5E80FF"/>
<path d="M113.28 123.087C113.004 122.533 112.769 121.897 112.575 121.177C112.381 120.457 112.215 119.696 112.077 118.893C111.44 119.586 110.707 120.236 109.876 120.845C109.045 121.454 108.118 121.994 107.094 122.464C106.098 122.907 104.99 123.253 103.772 123.502C102.554 123.779 101.24 123.918 99.8278 123.918C97.5303 123.918 95.4125 123.585 93.4753 122.921C91.5649 122.257 89.918 121.33 88.534 120.139C87.1498 118.949 86.0703 117.537 85.2951 115.904C84.5199 114.243 84.1329 112.444 84.1329 110.506C84.1329 105.773 85.8902 102.119 89.406 99.5447C92.9491 96.9427 98.2222 95.6419 105.226 95.6419H111.661V92.9844C111.661 90.825 110.956 89.1229 109.544 87.8772C108.132 86.6037 106.098 85.9671 103.44 85.9671C101.087 85.9671 99.371 86.4793 98.2916 87.5033C97.2119 88.4999 96.672 89.8426 96.672 91.531H85.1292C85.1292 89.6212 85.5444 87.8081 86.3746 86.0917C87.2329 84.3757 88.4648 82.8671 90.0702 81.566C91.7034 80.2648 93.6827 79.2409 96.0078 78.4933C98.3608 77.7183 101.046 77.3307 104.063 77.3307C106.775 77.3307 109.295 77.6629 111.62 78.3274C113.973 78.9916 116.007 79.9745 117.723 81.2751C119.439 82.5762 120.782 84.2231 121.751 86.2161C122.72 88.1817 123.204 90.4655 123.204 93.0672V112.333C123.204 114.741 123.356 116.735 123.661 118.312C123.966 119.89 124.408 121.246 124.99 122.381V123.087H113.28ZM102.278 114.99C103.44 114.99 104.52 114.852 105.516 114.576C106.512 114.298 107.412 113.938 108.215 113.495C109.018 113.053 109.709 112.555 110.291 112.001C110.872 111.42 111.329 110.838 111.661 110.257V102.534H105.765C103.966 102.534 102.43 102.714 101.157 103.074C99.883 103.406 98.8451 103.891 98.0423 104.527C97.2395 105.136 96.6444 105.884 96.2568 106.77C95.8692 107.627 95.6757 108.568 95.6757 109.593C95.6757 111.143 96.2153 112.43 97.2947 113.454C98.4023 114.478 100.063 114.99 102.278 114.99Z" fill="black"/>
<path d="M124.892 131.961H84.921V140.526H124.892V131.961Z" fill="#5E80FF"/>
<path fill-rule="evenodd" clip-rule="evenodd" d="M148.419 61.5761C147.569 62.6188 146.666 63.6663 145.706 64.7176C136.092 75.2562 120.891 86.182 98.1336 96.623C64.7585 111.936 65.7745 137.395 76.8875 160.228C76.8875 160.228 76.8875 160.228 76.8875 160.228C56.291 150.187 42.1 129.046 42.1 104.591C42.1 70.426 69.7962 42.73 103.961 42.73C121.411 42.73 137.173 49.9547 148.419 61.5761Z" fill="url(#paint3_linear_1_31)" fill-opacity="0.15"/>
<path fill-rule="evenodd" clip-rule="evenodd" d="M156.213 74.3474C156.602 74.0134 156.983 73.68 157.357 73.3474C162.734 82.517 165.816 93.1947 165.816 104.592C165.816 134.49 144.607 159.433 116.413 165.198C98.3155 143.627 94.7809 111.846 136.617 87.8522" fill="url(#paint4_linear_1_31)" fill-opacity="0.2"/>
<defs>
<radialGradient id="paint0_radial_1_31" cx="0" cy="0" r="1" gradientUnits="userSpaceOnUse" gradientTransform="translate(104.338 104.338) rotate(-29.6192) scale(135.925 130.152)">
<stop offset="0.5" stop-color="#B8B8FF"/>
<stop offset="1" stop-color="#DCDCFF"/>
</radialGradient>
<linearGradient id="paint1_linear_1_31" x1="79.895" y1="265.291" x2="79.895" y2="0" gradientUnits="userSpaceOnUse">
<stop stop-color="#4844EC"/>
<stop offset="1" stop-color="#766AFF"/>
</linearGradient>
<linearGradient id="paint2_linear_1_31" x1="267.473" y1="120.937" x2="44.7973" y2="120.937" gradientUnits="userSpaceOnUse">
<stop stop-color="#4844EC"/>
<stop offset="1" stop-color="#766AFF"/>
</linearGradient>
<linearGradient id="paint3_linear_1_31" x1="79.9008" y1="265.29" x2="79.9008" y2="-0.00146024" gradientUnits="userSpaceOnUse">
<stop stop-color="#4844EC"/>
<stop offset="1" stop-color="#766AFF"/>
</linearGradient>
<linearGradient id="paint4_linear_1_31" x1="267.473" y1="120.937" x2="44.7973" y2="120.937" gradientUnits="userSpaceOnUse">
<stop stop-color="#4844EC"/>
<stop offset="1" stop-color="#766AFF"/>
</linearGradient>
</defs>
</svg>
