<svg width="98" height="98" viewBox="0 0 98 98" fill="none" xmlns="http://www.w3.org/2000/svg">
<circle cx="48.75" cy="48.75" r="48.75" fill="white"/>
<path fill-rule="evenodd" clip-rule="evenodd" d="M48.75 7.65855C26.0558 7.65855 7.65849 26.0559 7.65849 48.7501C7.65849 71.4443 26.0558 89.8416 48.75 89.8416C71.4442 89.8416 89.8415 71.4443 89.8415 48.7501C89.8415 26.0559 71.4442 7.65855 48.75 7.65855ZM0 48.7501C0 21.8262 21.8261 4.57764e-05 48.75 4.57764e-05C75.6739 4.57764e-05 97.5 21.8262 97.5 48.7501C97.5 75.674 75.6739 97.5001 48.75 97.5001C21.8261 97.5001 0 75.674 0 48.7501Z" fill="#5E80FF"/>
<path d="M56.0991 63.3249C55.881 62.8887 55.6956 62.3869 55.5431 61.8199C55.3902 61.2525 55.2594 60.6527 55.1504 60.0201C54.6486 60.5654 54.0705 61.0782 53.4162 61.5579C52.7615 62.038 52.0309 62.4635 51.2237 62.8341C50.4385 63.1831 49.5658 63.456 48.606 63.6521C47.6463 63.8702 46.6102 63.9796 45.4976 63.9796C43.6871 63.9796 42.0182 63.7176 40.4914 63.1941C38.986 62.6706 37.6881 61.9399 36.5975 61.0019C35.5066 60.0639 34.6559 58.9513 34.0451 57.6644C33.4342 56.3554 33.1291 54.9376 33.1291 53.4105C33.1291 49.6802 34.5141 46.8009 37.2846 44.772C40.0769 42.7217 44.2324 41.6964 49.7514 41.6964H54.8232V39.6022C54.8232 37.9005 54.2669 36.559 53.1542 35.5775C52.0419 34.574 50.4385 34.0722 48.3444 34.0722C46.4901 34.0722 45.1376 34.4759 44.2869 35.2828C43.4362 36.0683 43.0107 37.1264 43.0107 38.4568H33.9143C33.9143 36.9518 34.2414 35.523 34.8958 34.1705C35.5722 32.818 36.543 31.6291 37.8082 30.6038C39.0951 29.5785 40.655 28.7716 42.4872 28.1825C44.3415 27.5717 46.4574 27.2663 48.8352 27.2663C50.9728 27.2663 52.9579 27.5281 54.7904 28.0516C56.6447 28.5751 58.2478 29.3496 59.6003 30.3747C60.9527 31.4 62.0108 32.6979 62.7742 34.2685C63.5379 35.8174 63.9196 37.6171 63.9196 39.6675V54.8503C63.9196 56.7481 64.0394 58.3187 64.2796 59.5621C64.5195 60.8056 64.8684 61.8744 65.3267 62.7686V63.3249H56.0991ZM47.4281 56.9445C48.3444 56.9445 49.1951 56.8354 49.9803 56.6173C50.7657 56.3989 51.4746 56.1155 52.1072 55.7663C52.7398 55.4174 53.2851 55.0246 53.7433 54.5884C54.2013 54.1304 54.5613 53.6721 54.8232 53.2141V47.1281H50.1766C48.7589 47.1281 47.5482 47.2699 46.5447 47.5533C45.5411 47.8152 44.7232 48.1969 44.0906 48.6987C43.458 49.1784 42.989 49.7675 42.6836 50.4657C42.3781 51.1418 42.2256 51.8834 42.2256 52.6906C42.2256 53.9123 42.6508 54.9266 43.5015 55.7338C44.3742 56.5407 45.6829 56.9445 47.4281 56.9445Z" fill="black"/>
<rect x="33.75" y="70.3182" width="31.5" height="6.75" fill="#5E80FF"/>
</svg>
