<svg width="150" height="150" viewBox="0 0 150 150" fill="none" xmlns="http://www.w3.org/2000/svg">
<g clip-path="url(#clip0_910_70)">
<path d="M75 150C116.421 150 150 116.421 150 75C150 33.5786 116.421 0 75 0C33.5786 0 0 33.5786 0 75C0 116.421 33.5786 150 75 150Z" fill="white"/>
<path d="M44.2348 69.6714L43.3951 70.9596C33.9246 85.4876 36.0399 104.514 48.4805 116.703C55.7992 123.875 65.3912 127.461 74.9836 127.462C74.9836 127.462 74.9836 127.462 44.2348 69.6714Z" fill="#00A3FF"/>
<path opacity="0.6" d="M74.9749 87.2355L44.2261 69.6714C74.9749 127.462 74.9749 127.462 74.9749 127.462C74.9749 114.875 74.9749 100.453 74.9749 87.2355Z" fill="#00A3FF"/>
<path opacity="0.6" d="M105.765 69.6714L106.605 70.9596C116.076 85.4876 113.96 104.514 101.52 116.703C94.2011 123.875 84.609 127.461 75.0166 127.462C75.0166 127.462 75.0166 127.462 105.765 69.6714Z" fill="#00A3FF"/>
<path opacity="0.2" d="M75.0127 87.2355L105.762 69.6714C75.013 127.462 75.0127 127.462 75.0127 127.462C75.0127 114.875 75.0127 100.453 75.0127 87.2355Z" fill="#00A3FF"/>
<path opacity="0.2" d="M75.0244 47.998V78.291L101.511 63.1545L75.0244 47.998Z" fill="#00A3FF"/>
<path opacity="0.6" d="M75.0165 47.998L48.5107 63.1539L75.0165 78.291V47.998Z" fill="#00A3FF"/>
<path d="M75.0165 22.522L48.5107 63.1638L75.0165 47.9654V22.522Z" fill="#00A3FF"/>
<path opacity="0.6" d="M75.0244 47.9607L101.531 63.1597L75.0244 22.4976V47.9607Z" fill="#00A3FF"/>
</g>
<rect x="0.5" y="0.5" width="149" height="149" rx="74.5" stroke="black"/>
<defs>
<clipPath id="clip0_910_70">
<rect width="150" height="150" rx="75" fill="white"/>
</clipPath>
</defs>
</svg>
