<svg width="122" height="122" viewBox="0 0 122 122" fill="none" xmlns="http://www.w3.org/2000/svg">
<path d="M61 122C94.6894 122 122 94.6894 122 61C122 27.3106 94.6894 0 61 0C27.3106 0 0 27.3106 0 61C0 94.6894 27.3106 122 61 122Z" fill="#104124"/>
<path d="M57.9017 90.1527L57.9203 84.4575C55.833 84.1659 53.9364 83.6139 52.2305 82.8015C50.5246 81.9891 49.0567 80.9639 47.8268 79.7259C46.5969 78.4879 45.6287 77.0609 44.9221 75.4449C44.2155 73.8289 43.818 72.0242 43.7296 70.0305L51.2045 70.0551C51.2477 71.3366 51.5525 72.4767 52.1187 73.4752C52.685 74.4737 53.4415 75.3305 54.3884 76.0455C55.3354 76.713 56.4254 77.2149 57.6582 77.5512C58.8911 77.8875 60.2194 78.0579 61.6432 78.0626C62.9246 78.0668 64.159 77.9285 65.3465 77.6476C66.534 77.3193 67.5559 76.8717 68.412 76.305C69.3158 75.691 70.0301 74.9577 70.555 74.1052C71.1274 73.2053 71.4155 72.1858 71.4193 71.0468C71.4238 69.6705 71.024 68.5539 70.22 67.6969C69.416 66.84 68.4454 66.1487 67.308 65.6229C66.1709 65.0496 64.9383 64.6184 63.6104 64.3293C62.3301 63.9929 61.1919 63.7281 60.1958 63.535C58.3463 63.1018 56.4969 62.6212 54.6477 62.093C52.7987 61.5174 51.1163 60.7526 49.6007 59.7984C48.1326 58.8444 46.9264 57.6302 45.982 56.1558C45.0378 54.634 44.5695 52.7103 44.5771 50.3848C44.5891 46.7304 45.7851 43.8155 48.1653 41.6402C50.5929 39.4649 53.8957 38.1469 58.0737 37.686L58.0924 31.9908L64.3571 32.0114L64.3382 37.7777C68.418 38.3132 71.5931 39.7474 73.8636 42.0804C76.1814 44.4135 77.4054 47.455 77.5355 51.2048L70.203 51.1807C70.1594 49.9941 69.8781 48.949 69.359 48.0456C68.8874 47.1423 68.2253 46.4045 67.3729 45.8322C66.5681 45.2126 65.5967 44.7585 64.4586 44.47C63.368 44.1817 62.2057 44.0355 60.9717 44.0314C59.7852 44.0275 58.6457 44.1662 57.5532 44.4474C56.4609 44.6811 55.4867 45.0576 54.6307 45.5768C53.7749 46.0486 53.0846 46.6871 52.5599 47.4922C52.0828 48.25 51.8426 49.1509 51.8391 50.195C51.8349 51.4764 52.2112 52.5218 52.9679 53.3311C53.7721 54.1406 54.7428 54.8082 55.8801 55.334C57.0176 55.8123 58.2029 56.1959 59.4359 56.4847C60.7164 56.7737 61.8308 57.0383 62.7792 57.2788C64.6287 57.712 66.5018 58.2164 68.3983 58.7922C70.3423 59.3681 72.0957 60.1569 73.6586 61.1587C75.2217 62.113 76.4752 63.3748 77.4193 64.9441C78.411 66.4661 78.9028 68.4373 78.8949 70.8578C78.8882 72.8985 78.5025 74.7245 77.7379 76.3356C76.9732 77.9468 75.9245 79.3434 74.5918 80.5255C73.3065 81.7078 71.7609 82.652 69.9551 83.3579C68.1969 84.0166 66.2734 84.4374 64.1846 84.6204L64.1663 90.1732L57.9017 90.1527Z" fill="white"/>
<path d="M25.4529 93.9133C17.6483 85.3992 12.8854 74.0513 12.8854 61.591C12.8854 35.1656 34.3074 13.7436 60.7327 13.7436C87.1581 13.7436 108.58 35.1656 108.58 61.591C108.58 74.0513 103.817 85.3992 96.0125 93.9133" stroke="white" stroke-width="7.67972"/>
<path d="M35.0742 101.943C42.4891 106.662 51.2914 109.397 60.7322 109.397C70.1731 109.397 78.9753 106.662 86.3902 101.943" stroke="white" stroke-width="7.67972"/>
</svg>
