<svg width="98" height="99" viewBox="0 0 98 99" fill="none" xmlns="http://www.w3.org/2000/svg">
<circle cx="48.75" cy="49.5" r="48.75" fill="white"/>
<path fill-rule="evenodd" clip-rule="evenodd" d="M48.75 8.4085C26.0558 8.4085 7.65849 26.8058 7.65849 49.5C7.65849 72.1943 26.0558 90.5916 48.75 90.5916C71.4442 90.5916 89.8415 72.1943 89.8415 49.5C89.8415 26.8058 71.4442 8.4085 48.75 8.4085ZM0 49.5C0 22.5761 21.8261 0.75 48.75 0.75C75.6739 0.75 97.5 22.5761 97.5 49.5C97.5 76.424 75.6739 98.2501 48.75 98.2501C21.8261 98.2501 0 76.424 0 49.5Z" fill="#5E80FF"/>
<path d="M56.0991 64.0749C55.881 63.6386 55.6956 63.1368 55.5431 62.5698C55.3902 62.0025 55.2594 61.4027 55.1504 60.7701C54.6486 61.3153 54.0705 61.8282 53.4162 62.3079C52.7615 62.7879 52.0309 63.2134 51.2237 63.5841C50.4385 63.933 49.5658 64.206 48.606 64.402C47.6463 64.6201 46.6102 64.7295 45.4976 64.7295C43.6871 64.7295 42.0182 64.4676 40.4914 63.9441C38.986 63.4205 37.6881 62.6899 36.5975 61.7519C35.5066 60.8139 34.6559 59.7012 34.0451 58.4143C33.4342 57.1053 33.1291 55.6876 33.1291 54.1605C33.1291 50.4302 34.5141 47.5509 37.2846 45.522C40.0769 43.4716 44.2324 42.4463 49.7514 42.4463H54.8232V40.3522C54.8232 38.6505 54.2669 37.309 53.1542 36.3275C52.0419 35.3239 50.4385 34.8221 48.3444 34.8221C46.4901 34.8221 45.1376 35.2259 44.2869 36.0328C43.4362 36.8182 43.0107 37.8763 43.0107 39.2068H33.9143C33.9143 37.7017 34.2414 36.273 34.8958 34.9205C35.5722 33.568 36.543 32.3791 37.8082 31.3538C39.0951 30.3284 40.655 29.5215 42.4872 28.9324C44.3415 28.3216 46.4574 28.0162 48.8352 28.0162C50.9728 28.0162 52.9579 28.278 54.7904 28.8015C56.6447 29.3251 58.2478 30.0996 59.6003 31.1246C60.9527 32.1499 62.0108 33.4479 62.7742 35.0185C63.5379 36.5674 63.9196 38.3671 63.9196 40.4174V55.6003C63.9196 57.498 64.0394 59.0687 64.2796 60.3121C64.5195 61.5555 64.8684 62.6243 65.3267 63.5185V64.0749H56.0991ZM47.4281 57.6944C48.3444 57.6944 49.1951 57.5854 49.9803 57.3672C50.7657 57.1488 51.4746 56.8655 52.1072 56.5162C52.7398 56.1673 53.2851 55.7746 53.7433 55.3383C54.2013 54.8804 54.5613 54.4221 54.8232 53.9641V47.878H50.1766C48.7589 47.878 47.5482 48.0199 46.5447 48.3032C45.5411 48.5652 44.7232 48.9469 44.0906 49.4487C43.458 49.9284 42.989 50.5175 42.6836 51.2156C42.3781 51.8917 42.2256 52.6334 42.2256 53.4406C42.2256 54.6623 42.6508 55.6765 43.5015 56.4838C44.3742 57.2907 45.6829 57.6944 47.4281 57.6944Z" fill="black"/>
<rect x="33.75" y="71.0682" width="31.5" height="6.75" fill="#5E80FF"/>
</svg>
