<svg width="18" height="18" viewBox="0 0 18 18" fill="none" xmlns="http://www.w3.org/2000/svg">
<rect width="18" height="18" rx="4" fill="#F5CBCB"/>
<g clip-path="url(#clip0_2153_9)">
<path d="M9 7V9M9 11H8.995M14 10.7386V7.26137C14 7.13908 14 7.07793 13.9862 7.02038C13.9739 6.96937 13.9537 6.92059 13.9263 6.87586C13.8954 6.8254 13.8522 6.78216 13.7657 6.69569L11.3043 4.23431C11.2178 4.14784 11.1746 4.1046 11.1241 4.07368C11.0794 4.04627 11.0306 4.02606 10.9796 4.01381C10.9221 4 10.8609 4 10.7386 4H7.26137C7.13908 4 7.07793 4 7.02038 4.01381C6.96937 4.02606 6.92059 4.04627 6.87586 4.07368C6.8254 4.1046 6.78216 4.14784 6.69569 4.23431L4.23431 6.69569C4.14784 6.78216 4.1046 6.8254 4.07368 6.87586C4.04627 6.92059 4.02606 6.96937 4.01381 7.02038C4 7.07793 4 7.13908 4 7.26137V10.7386C4 10.8609 4 10.9221 4.01381 10.9796C4.02606 11.0306 4.04627 11.0794 4.07368 11.1241C4.1046 11.1746 4.14784 11.2178 4.23431 11.3043L6.69569 13.7657C6.78216 13.8522 6.8254 13.8954 6.87586 13.9263C6.92059 13.9537 6.96937 13.9739 7.02038 13.9862C7.07793 14 7.13908 14 7.26137 14H10.7386C10.8609 14 10.9221 14 10.9796 13.9862C11.0306 13.9739 11.0794 13.9537 11.1241 13.9263C11.1746 13.8954 11.2178 13.8522 11.3043 13.7657L13.7657 11.3043C13.8522 11.2178 13.8954 11.1746 13.9263 11.1241C13.9537 11.0794 13.9739 11.0306 13.9862 10.9796C14 10.9221 14 10.8609 14 10.7386Z" stroke="#B52221" stroke-linecap="round" stroke-linejoin="round"/>
</g>
<defs>
<clipPath id="clip0_2153_9">
<rect width="12" height="12" fill="white" transform="matrix(-1 0 0 -1 15 15)"/>
</clipPath>
</defs>
</svg>
