<svg width="18" height="18" viewBox="0 0 18 18" fill="none" xmlns="http://www.w3.org/2000/svg">
<rect width="18" height="18" rx="4" fill="#DCDCFF"/>
<path d="M9 9L6.86356 7.21963C6.54613 6.95511 6.38742 6.82285 6.27332 6.66072C6.17222 6.51707 6.09714 6.35677 6.05151 6.18714C6 5.99569 6 5.7891 6 5.3759V4M9 9L11.1364 7.21963C11.4539 6.95511 11.6126 6.82285 11.7267 6.66072C11.8278 6.51707 11.9029 6.35677 11.9485 6.18714C12 5.99569 12 5.7891 12 5.3759V4M9 9L6.86356 10.7804C6.54613 11.0449 6.38742 11.1772 6.27332 11.3393C6.17222 11.4829 6.09714 11.6432 6.05151 11.8129C6 12.0043 6 12.2109 6 12.6241V14M9 9L11.1364 10.7804C11.4539 11.0449 11.6126 11.1772 11.7267 11.3393C11.8278 11.4829 11.9029 11.6432 11.9485 11.8129C12 12.0043 12 12.2109 12 12.6241V14M5 4H13M5 14H13" stroke="#4844EC" stroke-linecap="round" stroke-linejoin="round"/>
</svg>
